<?xml version="1.0" encoding="UTF-8"?>
<svg version="1.1" xmlns="http://www.w3.org/2000/svg" width="449" height="415">
<path d="M0 0 C1 1 1 1 1.21875 3.7421875 C0.43482023 15.41714151 -11.4055571 28.19744888 -18.48828125 37.046875 C-20.15818309 39.13476241 -20.15818309 39.13476241 -21.9375 42.125 C-24.33108874 45.46151764 -27.06034384 47.85809936 -30.1953125 50.484375 C-32.08324823 52.02542772 -32.08324823 52.02542772 -34 54 C-26.74 53.67 -19.48 53.34 -12 53 C-11.01 51.02 -10.02 49.04 -9 47 C-2.35796849 34.80165367 7.53874046 28.21243767 20.52734375 24.21484375 C37.87565302 19.30523059 60.62197566 14.97778524 77.42578125 22.8671875 C79 24 79 24 80 27 C76.78688525 32.73770492 76.78688525 32.73770492 73 34 C72.67 34.99 72.34 35.98 72 37 C70.36108398 38.28686523 70.36108398 38.28686523 68.24609375 39.55859375 C67.47330078 40.02716797 66.70050781 40.49574219 65.90429688 40.97851562 C65.09025391 41.45998047 64.27621094 41.94144531 63.4375 42.4375 C62.25704102 43.15389648 62.25704102 43.15389648 61.05273438 43.88476562 C47.54960777 52 47.54960777 52 44 52 C44.33 52.66 44.66 53.32 45 54 C48.02934491 54.65772428 48.02934491 54.65772428 51 55 C51 54.01 51 53.02 51 52 C78.18842273 50.77498971 102.56716069 59.84460432 123 78 C129.72047579 84.16142736 129.72047579 84.16142736 131 88 C129.515 88.495 129.515 88.495 128 89 C127.67 89.66 127.34 90.32 127 91 C113.13654972 98.14177742 91.2713295 95.96964031 76.89892578 91.57617188 C75.04758356 91.0144378 73.17795578 90.51412154 71.30859375 90.015625 C64.85851685 88.22515997 60.19797651 86.20261931 55 82 C53.824375 81.443125 53.824375 81.443125 52.625 80.875 C51 80 51 80 50 77 C45.27954788 71.71450623 40.96121171 69.11876617 34 68 C34 68.99 34 69.98 34 71 C34.53109375 71.22429687 35.0621875 71.44859375 35.609375 71.6796875 C38.8134654 73.44926684 41.4860121 75.75099559 44.25 78.125 C44.8262915 78.61782471 45.40258301 79.11064941 45.99633789 79.6184082 C67.25907238 97.96068301 67.25907238 97.96068301 68.3125 110.8125 C68 114 68 114 66 116 C49.23016723 117.34607353 26.30282321 108.90635771 13 99 C13 98.34 13 97.68 13 97 C12.05125 96.7525 11.1025 96.505 10.125 96.25 C6.56440032 94.82576013 6.48257341 94.28284113 5 91 C4.401875 90.855625 3.80375 90.71125 3.1875 90.5625 C-1.94399785 89.24297198 -4.45902222 84.27346263 -7 80 C-7.99 79.34 -8.98 78.68 -10 78 C-10 77.34 -10 76.68 -10 76 C-10.66 76 -11.32 76 -12 76 C-12 75.34 -12 74.68 -12 74 C-15.86723631 72.73417781 -19.73151262 72.8881235 -23.75 72.9375 C-24.44738281 72.94201172 -25.14476562 72.94652344 -25.86328125 72.95117188 C-27.57555803 72.9628998 -29.28779033 72.98083347 -31 73 C-30.0925 73.33 -29.185 73.66 -28.25 74 C-19.4251683 77.83765226 -11.84073262 83.93450747 -4.5625 90.125 C-3.69419556 90.86061157 -3.69419556 90.86061157 -2.80834961 91.61108398 C3.07805716 96.72564326 7.21386874 101.16850139 9 109 C9.36719313 110.31470546 9.74198284 111.62731715 10.125 112.9375 C10.41375 113.948125 10.7025 114.95875 11 116 C8.36057937 118.63942063 2.45612596 117.92119582 -1 118 C-20.18346838 117.6224264 -37.31261344 111.08965261 -54 102 C-54 101.34 -54 100.68 -54 100 C-54.53625 99.9175 -55.0725 99.835 -55.625 99.75 C-60.0361577 98.35700283 -63.30044525 95.71704362 -66.5 92.4375 C-69.15298711 89.85083756 -71.62967432 88.48921367 -75 87 C-75 86.34 -75 85.68 -75 85 C-75.67546875 85.20496094 -76.3509375 85.40992187 -77.046875 85.62109375 C-77.93890625 85.89050781 -78.8309375 86.15992187 -79.75 86.4375 C-80.63171875 86.70433594 -81.5134375 86.97117187 -82.421875 87.24609375 C-84.60565835 87.88468494 -86.78835498 88.46775833 -89 89 C-89 89.66 -89 90.32 -89 91 C-89 91.33 -89 91.66 -89 92 C-87.9584375 92.268125 -86.916875 92.53625 -85.84375 92.8125 C-71.77231545 96.59631785 -53.51059969 102.22132179 -45 115 C-45 115.66 -45 116.32 -45 117 C-44.34 117 -43.68 117 -43 117 C-43 119.97 -43 122.94 -43 126 C-52.34925876 128.05606105 -61.41040384 129.64039014 -71 130 C-71.65226563 130.02723145 -72.30453125 130.05446289 -72.9765625 130.08251953 C-89.32706712 130.69107062 -103.14593403 127.70924175 -117.9765625 120.56640625 C-118.93304688 120.11136719 -119.88953125 119.65632813 -120.875 119.1875 C-122.13957031 118.55908203 -122.13957031 118.55908203 -123.4296875 117.91796875 C-126.59027456 116.78918766 -128.65840354 116.58282718 -132 117 C-134.41154172 118.24764793 -136.47728306 119.46808675 -138.6875 121 C-139.29980469 121.41008301 -139.91210938 121.82016602 -140.54296875 122.24267578 C-142.37423869 123.4783061 -144.189286 124.73448552 -146 126 C-147.41732422 126.98613281 -147.41732422 126.98613281 -148.86328125 127.9921875 C-155.81808226 132.95843059 -162.50574049 138.27022072 -169.20166016 143.57666016 C-171.54912387 145.43461745 -173.90313671 147.28414263 -176.25830078 149.13232422 C-177.41782342 150.04284367 -178.57635621 150.9546251 -179.73388672 151.86767578 C-182.71994291 154.22146959 -185.71951447 156.5539502 -188.74609375 158.85546875 C-194.33074037 163.12405384 -199.65250317 167.26541314 -204.08984375 172.76953125 C-207.25389875 176.46416398 -210.79162109 179.79853275 -214.29516602 183.16943359 C-217.552968 186.35796246 -220.23072394 189.6096069 -222.8034668 193.36889648 C-224 195 -224 195 -226.41796875 197.40625 C-229.81514581 200.81884541 -232.51980887 204.58735123 -235.3125 208.5 C-235.88427979 209.29809082 -236.45605957 210.09618164 -237.04516602 210.91845703 C-248.91319893 227.62658191 -258.44933649 244.60919247 -262 265 C-261.09507812 263.26363281 -261.09507812 263.26363281 -260.171875 261.4921875 C-259.36475769 259.95303356 -258.55745624 258.41397616 -257.75 256.875 C-257.35425781 256.11445313 -256.95851563 255.35390625 -256.55078125 254.5703125 C-253.18048619 248.16122681 -249.36859109 242.31460393 -244.875 236.625 C-244.19179687 235.75101563 -243.50859375 234.87703125 -242.8046875 233.9765625 C-242.20914063 233.32429687 -241.61359375 232.67203125 -241 232 C-240.34 232 -239.68 232 -239 232 C-238.73058594 231.40574219 -238.46117187 230.81148437 -238.18359375 230.19921875 C-232.39210213 219.43813036 -217.98751996 210.46458523 -208 204 C-207.34 204 -206.68 204 -206 204 C-206 203.34 -206 202.68 -206 202 C-199.75728236 198.50831047 -193.44733669 195.16067382 -187.0625 191.9375 C-186.44375 191.62167969 -185.825 191.30585938 -185.1875 190.98046875 C-148.35347306 172.52563801 -106.84541492 167.54656729 -66.125 167.5625 C-65.05927765 167.56209717 -63.9935553 167.56169434 -62.89553833 167.5612793 C-10.8456467 167.67403292 39.09420636 184.42674588 77 221 C92.04162731 236.43225471 105.65299499 259.08386436 107 281 C107.09925781 282.04414063 107.19851563 283.08828125 107.30078125 284.1640625 C107.94373015 295.9388522 104.42614376 306.73934004 98.87670898 317.09643555 C97.65263341 319.7542237 98.17411779 321.23564815 99 324 C99.66494527 325.46875462 100.3536943 326.92690234 101.0625 328.375 C105.95885174 340.4813642 102.93218872 354.14512859 98.25244141 365.87353516 C91.55872064 381.5661807 81.68033684 390.1346219 66.18359375 396.65625 C37.69875388 407.63103408 6.4519201 406.76093541 -23.52744293 406.67162752 C-29.23298718 406.65873377 -34.93849661 406.67077229 -40.64404297 406.67855835 C-50.21524403 406.68758801 -59.78625054 406.67584465 -69.35742188 406.65185547 C-80.33379402 406.62465741 -91.30970133 406.63347635 -102.28606224 406.6609875 C-111.80645334 406.68387028 -121.32670668 406.68678615 -130.84711647 406.67379415 C-136.49107066 406.66610376 -142.13480835 406.66466342 -147.77874756 406.68147659 C-231.24786751 406.89640615 -231.24786751 406.89640615 -254.9375 384.625 C-255.99318516 383.44699364 -257.01339707 382.23644037 -258 381 C-258.59167969 380.26136719 -259.18335938 379.52273438 -259.79296875 378.76171875 C-267.51980832 368.43180742 -271.91215814 357.46581446 -270.77734375 344.4453125 C-269.96826199 339.52798064 -268.32447183 335.49165124 -266.1875 331 C-263.99914237 325.86778032 -263.60435105 323.02053389 -265.6328125 317.83203125 C-267.7421774 313.46263253 -269.9337539 309.13642519 -272.14941406 304.82006836 C-274.6352076 299.91869161 -276.41495675 295.50516104 -277 290 C-277.13019531 289.05382812 -277.26039063 288.10765625 -277.39453125 287.1328125 C-280.21756289 261.75655005 -270.06138211 237.68641089 -258 216 C-257.66613281 215.39430176 -257.33226562 214.78860352 -256.98828125 214.16455078 C-252.8431668 206.67508262 -252.8431668 206.67508262 -251 204 C-250.34 204 -249.68 204 -249 204 C-248.731875 203.443125 -248.46375 202.88625 -248.1875 202.3125 C-246.89100504 199.78774666 -245.57523677 197.36285516 -244 195 C-243.34 195 -242.68 195 -242 195 C-241.78085938 194.48179687 -241.56171875 193.96359375 -241.3359375 193.4296875 C-239.46502414 190.02703221 -237.05845203 187.14119975 -234.625 184.125 C-231.85614531 180.68244002 -229.14002976 177.28991143 -226.7734375 173.5546875 C-226.18820313 172.71164063 -225.60296875 171.86859375 -225 171 C-224.34 171 -223.68 171 -223 171 C-222.7539502 170.42942871 -222.50790039 169.85885742 -222.25439453 169.27099609 C-220.78893822 166.61788698 -219.06947424 164.8104202 -216.9296875 162.6640625 C-216.115 161.84679687 -215.3003125 161.02953125 -214.4609375 160.1875 C-213.60757813 159.341875 -212.75421875 158.49625 -211.875 157.625 C-210.62976563 156.36816406 -210.62976563 156.36816406 -209.359375 155.0859375 C-205.00475701 150.74497035 -200.64139976 146.74579701 -195.61645508 143.19384766 C-193.81275427 141.92941606 -193.81275427 141.92941606 -191.8125 139.75 C-189.70538891 137.71554791 -187.75753078 136.91917693 -185 136 C-185 135.34 -185 134.68 -185 134 C-184.34 134 -183.68 134 -183 134 C-183.2165625 133.33355469 -183.433125 132.66710937 -183.65625 131.98046875 C-188.39605365 116.29084092 -185.76734264 99.0143354 -178.6875 84.3125 C-175.62036573 78.74477219 -172.17858183 73.78043518 -168 69 C-166.84371094 67.64648438 -166.84371094 67.64648438 -165.6640625 66.265625 C-159.45418327 59.15139442 -159.45418327 59.15139442 -156 58 C-156 57.34 -156 56.68 -156 56 C-154.60922699 55.17886823 -153.21211107 54.36847505 -151.8125 53.5625 C-151.03519531 53.11003906 -150.25789063 52.65757813 -149.45703125 52.19140625 C-146.95068023 50.97608501 -144.74209635 50.42373425 -142 50 C-136.01034373 63.85108012 -141.97759404 83.08141673 -145.72949219 97.01245117 C-146.47503168 99.78424492 -147 102.11110901 -147 105 C-145.24972675 103.72954304 -143.49979256 102.45861894 -141.75 101.1875 C-140.77546875 100.47980469 -139.8009375 99.77210937 -138.796875 99.04296875 C-137.09897708 97.80274443 -135.41674819 96.54012838 -133.765625 95.23828125 C-132 94 -132 94 -130 94 C-130.0721875 92.84242187 -130.144375 91.68484375 -130.21875 90.4921875 C-130.31259492 88.95313078 -130.40633961 87.41406796 -130.5 85.875 C-130.57154297 84.73417969 -130.57154297 84.73417969 -130.64453125 83.5703125 C-131.36962698 71.55444046 -131.36962698 71.55444046 -129 68 C-128.39027815 66.48955269 -127.8098075 64.96714943 -127.25 63.4375 C-120.26030427 45.79683935 -105.45399983 30.58114444 -88.51171875 22.0234375 C-84.8459429 20.52976212 -81.9659697 20 -78 20 C-77.01 20.66 -76.02 21.32 -75 22 C-74.50283879 37.28770712 -82.55077957 51.76789867 -89.47290039 64.97558594 C-91.02564816 67.94455017 -92.41102793 70.68184747 -93 74 C-90.05762531 72.80343429 -87.1239817 71.59069284 -84.19921875 70.3515625 C-82.29663671 69.54778547 -80.3851444 68.76388034 -78.45703125 68.0234375 C-76.0337002 67.08079382 -76.0337002 67.08079382 -73 65 C-71.8922594 61.75649828 -71.8922594 61.75649828 -72 58 C-71.82686493 56.3525936 -71.63914233 54.70666057 -71.4375 53.0625 C-71.29056661 51.70845225 -71.14433868 50.35432679 -71 49 C-70.34 49 -69.68 49 -69 49 C-68.85304687 47.71609375 -68.85304687 47.71609375 -68.703125 46.40625 C-66.36814573 35.09457266 -58.70055349 26.06919971 -50 19 C-49.24589844 18.21882813 -48.49179688 17.43765625 -47.71484375 16.6328125 C-38.94680783 8.12971004 -28.84453727 3.58168357 -17 1 C-16.05769531 0.76539063 -15.11539062 0.53078125 -14.14453125 0.2890625 C-9.07074941 -0.89302888 -5.09042889 -1.19137697 0 0 Z M41 53 C40.67 53.66 40.34 54.32 40 55 C40.99 55 41.98 55 43 55 C43 54.34 43 53.68 43 53 C42.34 53 41.68 53 41 53 Z M-167 204 C-168.3772945 204.57236031 -169.75491792 205.14392957 -171.1328125 205.71484375 C-191.28769108 214.20344752 -209.06828225 226.01527246 -225 241 C-225.92039062 241.82371094 -225.92039062 241.82371094 -226.859375 242.6640625 C-232.5858642 247.99652722 -236.73682474 254.49632387 -241 261 C-241.58265625 261.87140625 -242.1653125 262.7428125 -242.765625 263.640625 C-249.67547404 274.45907552 -252.40881917 285.14452507 -251 298 C-249.33037213 304.63677076 -244.71499873 309.44226107 -239 313 C-220.58277226 321.23752368 -197.76772206 323.18432174 -177.81229305 322.96179485 C-174.87773466 323.00166098 -172.00420844 323.22872056 -169.08143616 323.49165344 C-161.88260954 324.06423205 -154.72820012 324.14781823 -147.50952148 324.14526367 C-146.10790418 324.14826557 -144.70628769 324.15167042 -143.30467224 324.15544128 C-139.53041347 324.16419564 -135.75617746 324.16661618 -131.98190951 324.16725707 C-129.60308591 324.16797418 -127.22426785 324.17012113 -124.84544563 324.17275429 C-116.48509489 324.18199004 -108.12475997 324.18609271 -99.7644043 324.18530273 C-92.07643565 324.18470725 -84.38853837 324.19515839 -76.70058769 324.2110464 C-70.02550486 324.2243293 -63.35044468 324.22947793 -56.67534882 324.22884732 C-52.72285039 324.22859766 -48.77041502 324.23113981 -44.81793022 324.24202538 C-28.09097992 324.28481302 -11.430222 324.01526819 5.27319336 323.07543945 C6.01075084 323.03415369 6.74830832 322.99286793 7.50821602 322.95033109 C34.0833593 321.53960351 34.0833593 321.53960351 60 316 C60.67474365 315.802854 61.3494873 315.60570801 62.04467773 315.40258789 C71.99819787 312.41666605 78.98275007 308.54449489 85 300 C89.14234165 291.27928074 87.3817794 281.36408406 84.40234375 272.57421875 C82.74903652 268.36035769 80.96091523 264.23362376 79.0625 260.125 C78.73894531 259.4235083 78.41539062 258.7220166 78.08203125 257.99926758 C75.81997974 253.27936694 73.25551807 249.10828145 70 245 C69.34 245 68.68 245 68 245 C67.773125 244.278125 67.54625 243.55625 67.3125 242.8125 C65.71422075 239.38761589 63.76411259 237.57983841 61 235 C59.18037715 233.12155313 57.36352198 231.24055833 55.55078125 229.35546875 C54.09230108 227.78063276 54.09230108 227.78063276 52 228 C52 227.34 52 226.68 52 226 C33.02940738 209.55356107 8.33887187 199.79716836 -15.5625 193.375 C-16.33021729 193.16842773 -17.09793457 192.96185547 -17.88891602 192.74902344 C-28.55291331 189.96740607 -39.06777318 188.57085066 -50.0625 187.875 C-51.36944824 187.7915332 -52.67639648 187.70806641 -54.02294922 187.62207031 C-92.4710278 185.28637401 -131.32924825 188.51031982 -167 204 Z M70.6171875 334.875 C52.15738855 338.62908729 33.61876701 340.75518934 14.81855774 341.78303528 C12.32971764 341.92444744 9.84164169 342.08027218 7.35475159 342.25260925 C-8.32554794 343.28545632 -24.02909066 343.14721774 -39.73489428 343.1343255 C-43.86870414 343.13175077 -48.00251205 343.13415402 -52.13632202 343.13571167 C-59.08730472 343.13752155 -66.03827674 343.13516128 -72.98925781 343.13037109 C-80.92959893 343.12496091 -88.86991423 343.12667221 -96.81025469 343.1321975 C-103.70876328 343.13679899 -110.60726427 343.1373446 -117.5057739 343.13475883 C-121.58941083 343.13323015 -125.67303583 343.13290426 -129.75667191 343.13629532 C-146.1697953 343.14802852 -162.56764602 343.0405286 -178.97412109 342.54248047 C-179.65020959 342.52226782 -180.32629809 342.50205517 -181.02287412 342.48123002 C-197.17306125 341.98612785 -213.28693054 341.44716193 -228.98217773 337.32104492 C-233.92771747 336.05057042 -238.89806241 335.27826556 -244 336 C-247.03907571 338.21599271 -248.56522438 339.76256169 -249.8125 343.3125 C-250.47743102 352.84317795 -249.68610317 359.02460272 -243.5625 366.625 C-220.71610425 390.75676465 -167.80423871 388.87306443 -137 390 C-129.52978253 390.16645686 -122.05757575 390.14138387 -114.5859375 390.1328125 C-112.47522979 390.13348854 -110.36452215 390.13446104 -108.2538147 390.13571167 C-103.86191048 390.1371739 -99.4700268 390.13508162 -95.078125 390.13037109 C-89.49312395 390.12466764 -83.90817092 390.12796619 -78.32317162 390.13394356 C-73.97504321 390.13758325 -69.62692591 390.13639515 -65.27879715 390.13381577 C-63.22103494 390.13315626 -61.16327168 390.13394008 -59.10551071 390.13629532 C-48.4799013 390.14579552 -37.92603483 390.01368283 -27.32635498 389.23468018 C-23.17627318 388.94188463 -19.03110136 388.82225575 -14.87304688 388.7097168 C34.97432603 387.96713719 34.97432603 387.96713719 76.9375 364.1875 C81.48922496 358.62914356 83.63860967 352.20088575 84.4375 345.125 C83.80953232 340.63951657 82.31867279 338.15883366 78.9375 335.1875 C75.97989102 333.37477191 73.88787803 334.18796341 70.6171875 334.875 Z " fill="#C7A846" transform="translate(303,9)"/>
<path d="M0 0 C1 1 1 1 1.21875 3.7421875 C0.43482023 15.41714151 -11.4055571 28.19744888 -18.48828125 37.046875 C-20.15818309 39.13476241 -20.15818309 39.13476241 -21.9375 42.125 C-24.33108874 45.46151764 -27.06034384 47.85809936 -30.1953125 50.484375 C-32.08324823 52.02542772 -32.08324823 52.02542772 -34 54 C-26.74 53.67 -19.48 53.34 -12 53 C-11.01 51.02 -10.02 49.04 -9 47 C-2.35796849 34.80165367 7.53874046 28.21243767 20.52734375 24.21484375 C37.87565302 19.30523059 60.62197566 14.97778524 77.42578125 22.8671875 C79 24 79 24 80 27 C76.78688525 32.73770492 76.78688525 32.73770492 73 34 C72.67 34.99 72.34 35.98 72 37 C70.36108398 38.28686523 70.36108398 38.28686523 68.24609375 39.55859375 C67.47330078 40.02716797 66.70050781 40.49574219 65.90429688 40.97851562 C65.09025391 41.45998047 64.27621094 41.94144531 63.4375 42.4375 C62.25704102 43.15389648 62.25704102 43.15389648 61.05273438 43.88476562 C47.54960777 52 47.54960777 52 44 52 C44.33 52.66 44.66 53.32 45 54 C48.02934491 54.65772428 48.02934491 54.65772428 51 55 C51 54.01 51 53.02 51 52 C78.18842273 50.77498971 102.56716069 59.84460432 123 78 C129.72047579 84.16142736 129.72047579 84.16142736 131 88 C129.515 88.495 129.515 88.495 128 89 C127.67 89.66 127.34 90.32 127 91 C113.13654972 98.14177742 91.2713295 95.96964031 76.89892578 91.57617188 C75.04758356 91.0144378 73.17795578 90.51412154 71.30859375 90.015625 C64.85851685 88.22515997 60.19797651 86.20261931 55 82 C53.824375 81.443125 53.824375 81.443125 52.625 80.875 C51 80 51 80 50 77 C45.27954788 71.71450623 40.96121171 69.11876617 34 68 C34 68.99 34 69.98 34 71 C34.53109375 71.22429687 35.0621875 71.44859375 35.609375 71.6796875 C38.8134654 73.44926684 41.4860121 75.75099559 44.25 78.125 C44.8262915 78.61782471 45.40258301 79.11064941 45.99633789 79.6184082 C67.25907238 97.96068301 67.25907238 97.96068301 68.3125 110.8125 C68 114 68 114 66 116 C49.23016723 117.34607353 26.30282321 108.90635771 13 99 C13 98.34 13 97.68 13 97 C12.05125 96.7525 11.1025 96.505 10.125 96.25 C6.56440032 94.82576013 6.48257341 94.28284113 5 91 C4.401875 90.855625 3.80375 90.71125 3.1875 90.5625 C-1.94399785 89.24297198 -4.45902222 84.27346263 -7 80 C-7.99 79.34 -8.98 78.68 -10 78 C-10 77.34 -10 76.68 -10 76 C-10.66 76 -11.32 76 -12 76 C-12 75.34 -12 74.68 -12 74 C-15.86723631 72.73417781 -19.73151262 72.8881235 -23.75 72.9375 C-24.44738281 72.94201172 -25.14476562 72.94652344 -25.86328125 72.95117188 C-27.57555803 72.9628998 -29.28779033 72.98083347 -31 73 C-30.0925 73.33 -29.185 73.66 -28.25 74 C-19.4251683 77.83765226 -11.84073262 83.93450747 -4.5625 90.125 C-3.98363037 90.61540771 -3.40476074 91.10581543 -2.80834961 91.61108398 C3.07805716 96.72564326 7.21386874 101.16850139 9 109 C9.36719313 110.31470546 9.74198284 111.62731715 10.125 112.9375 C10.41375 113.948125 10.7025 114.95875 11 116 C8.36057937 118.63942063 2.45612596 117.92119582 -1 118 C-20.18346838 117.6224264 -37.31261344 111.08965261 -54 102 C-54 101.34 -54 100.68 -54 100 C-54.53625 99.9175 -55.0725 99.835 -55.625 99.75 C-60.0361577 98.35700283 -63.30044525 95.71704362 -66.5 92.4375 C-69.15298711 89.85083756 -71.62967432 88.48921367 -75 87 C-75 86.34 -75 85.68 -75 85 C-75.67546875 85.20496094 -76.3509375 85.40992187 -77.046875 85.62109375 C-77.93890625 85.89050781 -78.8309375 86.15992187 -79.75 86.4375 C-80.63171875 86.70433594 -81.5134375 86.97117187 -82.421875 87.24609375 C-84.60565835 87.88468494 -86.78835498 88.46775833 -89 89 C-89 89.66 -89 90.32 -89 91 C-89 91.33 -89 91.66 -89 92 C-87.9584375 92.268125 -86.916875 92.53625 -85.84375 92.8125 C-71.77231545 96.59631785 -53.51059969 102.22132179 -45 115 C-45 115.66 -45 116.32 -45 117 C-44.34 117 -43.68 117 -43 117 C-43 119.97 -43 122.94 -43 126 C-52.34925876 128.05606105 -61.41040384 129.64039014 -71 130 C-71.65226562 130.02723145 -72.30453125 130.05446289 -72.9765625 130.08251953 C-89.32706712 130.69107062 -103.14593403 127.70924175 -117.9765625 120.56640625 C-118.93304688 120.11136719 -119.88953125 119.65632813 -120.875 119.1875 C-122.13957031 118.55908203 -122.13957031 118.55908203 -123.4296875 117.91796875 C-126.59027456 116.78918766 -128.65840354 116.58282718 -132 117 C-134.41154172 118.24764793 -136.47728306 119.46808675 -138.6875 121 C-139.29980469 121.41008301 -139.91210938 121.82016602 -140.54296875 122.24267578 C-142.37423869 123.4783061 -144.189286 124.73448552 -146 126 C-147.41732422 126.98613281 -147.41732422 126.98613281 -148.86328125 127.9921875 C-155.81634594 132.95719073 -162.50281853 138.26736863 -169.19726562 143.57226562 C-172.14735528 145.9086855 -175.10430828 148.23635119 -178.0625 150.5625 C-178.63218506 151.01061035 -179.20187012 151.4587207 -179.78881836 151.92041016 C-185.82372651 156.65974145 -191.90778192 161.33469679 -198 166 C-198.33 165.34 -198.66 164.68 -199 164 C-198.505 163.01 -198.505 163.01 -198 162 C-197.01 162 -196.02 162 -195 162 C-195 161.01 -195 160.02 -195 159 C-193.68 159 -192.36 159 -191 159 C-191 158.01 -191 157.02 -191 156 C-190.34 155.67 -189.68 155.34 -189 155 C-189.845625 154.278125 -190.69125 153.55625 -191.5625 152.8125 C-194 150 -194 150 -193.8125 147.1875 C-193.544375 146.465625 -193.27625 145.74375 -193 145 C-193.66 144.67 -194.32 144.34 -195 144 C-193.4972742 139.79236776 -190.76667005 138.1972242 -187 136 C-186.34 136 -185.68 136 -185 136 C-185 135.34 -185 134.68 -185 134 C-184.34 134 -183.68 134 -183 134 C-183.32484375 133.00033203 -183.32484375 133.00033203 -183.65625 131.98046875 C-188.39605365 116.29084092 -185.76734264 99.0143354 -178.6875 84.3125 C-175.62036573 78.74477219 -172.17858183 73.78043518 -168 69 C-166.84371094 67.64648438 -166.84371094 67.64648438 -165.6640625 66.265625 C-159.45418327 59.15139442 -159.45418327 59.15139442 -156 58 C-156 57.34 -156 56.68 -156 56 C-154.60922699 55.17886823 -153.21211107 54.36847505 -151.8125 53.5625 C-151.03519531 53.11003906 -150.25789063 52.65757813 -149.45703125 52.19140625 C-146.95068023 50.97608501 -144.74209635 50.42373425 -142 50 C-136.01034373 63.85108012 -141.97759404 83.08141673 -145.72949219 97.01245117 C-146.47503168 99.78424492 -147 102.11110901 -147 105 C-145.24972675 103.72954304 -143.49979256 102.45861894 -141.75 101.1875 C-140.77546875 100.47980469 -139.8009375 99.77210937 -138.796875 99.04296875 C-137.09897708 97.80274443 -135.41674819 96.54012838 -133.765625 95.23828125 C-132 94 -132 94 -130 94 C-130.10828125 92.26363281 -130.10828125 92.26363281 -130.21875 90.4921875 C-130.31259492 88.95313078 -130.40633961 87.41406796 -130.5 85.875 C-130.57154297 84.73417969 -130.57154297 84.73417969 -130.64453125 83.5703125 C-131.36962698 71.55444046 -131.36962698 71.55444046 -129 68 C-128.39027815 66.48955269 -127.8098075 64.96714943 -127.25 63.4375 C-120.26030427 45.79683935 -105.45399983 30.58114444 -88.51171875 22.0234375 C-84.8459429 20.52976212 -81.9659697 20 -78 20 C-77.01 20.66 -76.02 21.32 -75 22 C-74.50283879 37.28770712 -82.55077957 51.76789867 -89.47290039 64.97558594 C-91.02564816 67.94455017 -92.41102793 70.68184747 -93 74 C-90.05762531 72.80343429 -87.1239817 71.59069284 -84.19921875 70.3515625 C-82.29663671 69.54778547 -80.3851444 68.76388034 -78.45703125 68.0234375 C-76.0337002 67.08079382 -76.0337002 67.08079382 -73 65 C-71.8922594 61.75649828 -71.8922594 61.75649828 -72 58 C-71.82686493 56.3525936 -71.63914233 54.70666057 -71.4375 53.0625 C-71.29056661 51.70845225 -71.14433868 50.35432679 -71 49 C-70.34 49 -69.68 49 -69 49 C-68.85304687 47.71609375 -68.85304687 47.71609375 -68.703125 46.40625 C-66.36814573 35.09457266 -58.70055349 26.06919971 -50 19 C-49.24589844 18.21882813 -48.49179688 17.43765625 -47.71484375 16.6328125 C-38.94680783 8.12971004 -28.84453727 3.58168357 -17 1 C-16.05769531 0.76539063 -15.11539063 0.53078125 -14.14453125 0.2890625 C-9.07074941 -0.89302888 -5.09042889 -1.19137697 0 0 Z M41 53 C40.67 53.66 40.34 54.32 40 55 C40.99 55 41.98 55 43 55 C43 54.34 43 53.68 43 53 C42.34 53 41.68 53 41 53 Z " fill="#C7A845" transform="translate(303,9)"/>
<path d="M0 0 C4.72463088 0.46319911 8.17057052 1.09891706 12 4 C12 4.66 12 5.32 12 6 C12.70769531 6.27199219 13.41539062 6.54398437 14.14453125 6.82421875 C17.07376763 8.03037491 19.87359439 9.35756108 22.6875 10.8125 C23.64011719 11.29332031 24.59273438 11.77414063 25.57421875 12.26953125 C28.3808312 14.27167186 29.05270354 15.73708996 30 19 C27.69 18.67 25.38 18.34 23 18 C23 18.66 23 19.32 23 20 C22.34 20 21.68 20 21 20 C21.495 24.455 21.495 24.455 22 29 C22.99 28.67 23.98 28.34 25 28 C25 28.99 25 29.98 25 31 C25.66 31.66 26.32 32.32 27 33 C17.70065518 32.0211216 8.44999206 27.54786642 1 22 C1 21.34 1 20.68 1 20 C0.05125 19.7525 -0.8975 19.505 -1.875 19.25 C-5.43559968 17.82576013 -5.51742659 17.28284113 -7 14 C-7.598125 13.855625 -8.19625 13.71125 -8.8125 13.5625 C-12.2057018 12.6899624 -13.75006324 10.60518993 -16 8 C-17.3125 5.1875 -17.3125 5.1875 -18 3 C-17.01 3 -16.02 3 -15 3 C-11 7.34285714 -11 7.34285714 -11 10 C-10.34 10 -9.68 10 -9 10 C-9 10.66 -9 11.32 -9 12 C-8.38125 11.79375 -7.7625 11.5875 -7.125 11.375 C-6.073125 11.189375 -6.073125 11.189375 -5 11 C-4.34 11.66 -3.68 12.32 -3 13 C-1.35 11.68 0.3 10.36 2 9 C2.33 9.99 2.66 10.98 3 12 C3.66 12 4.32 12 5 12 C4.360625 10.948125 3.72125 9.89625 3.0625 8.8125 C1.38245548 5.89171588 0.41003948 3.3828257 0 0 Z " fill="#C8A947" transform="translate(315,86)"/>
<path d="M0 0 C3.12634557 2.55211883 4.67137778 4.00451089 5.32421875 7.96875 C5.20666998 11.18587412 4.60434895 13.25238577 2.56640625 15.7734375 C-3.91216998 21.68928662 -9.96068208 22.22041401 -18.48828125 22.16796875 C-21 22 -21 22 -22 21 C-22.31930763 14.65549614 -20.53546717 10.56843479 -16.5703125 5.7265625 C-11.81565183 0.49880127 -7.37148103 -1.50051887 0 0 Z " fill="#C6A947" transform="translate(171,225)"/>
<path d="M0 0 C5.56437321 1.53965667 9.27081155 5.35741278 12.9765625 9.60546875 C14.79519016 13.47993638 14.49542086 15.57425495 13.4140625 19.66796875 C11.4140625 22.66796875 11.4140625 22.66796875 9.7265625 23.35546875 C3.24732336 24.23104161 -0.42801573 23.62703879 -5.88671875 20.15234375 C-8.87273402 17.54387064 -9.51290925 15.43618796 -9.88671875 11.50390625 C-9.89058594 10.36179687 -9.89445313 9.2196875 -9.8984375 8.04296875 C-9.91519531 6.89570313 -9.93195313 5.7484375 -9.94921875 4.56640625 C-9.82933594 3.60992187 -9.70945313 2.6534375 -9.5859375 1.66796875 C-5.87733813 -0.80443083 -4.266852 -0.59068798 0 0 Z " fill="#C8A944" transform="translate(259.5859375,255.33203125)"/>
<path d="M0 0 C5.79502523 1.05442027 9.41874188 4.74021097 12.703125 9.41796875 C13.85775119 13.18974763 13.5919485 15.67517475 12.640625 19.48046875 C10.16628179 21.95481196 8.14162545 22.1757579 4.72265625 22.49609375 C0.4188736 22.46379519 -2.15304772 20.54732208 -5.28515625 17.77734375 C-8.51680823 14.48740546 -10.80945864 11.90820224 -10.984375 7.16796875 C-9.81504416 0.26891678 -6.39772897 -0.1964215 0 0 Z " fill="#C8AA4C" transform="translate(304.359375,234.51953125)"/>
<path d="M0 0 C3.06539611 3.30119581 4.01701907 5.02991312 3.9375 9.5625 C2.37511593 15.2912416 0.05171799 18.78527037 -5 22 C-9.70996826 23.17749207 -12.66217778 23.23463569 -17 21 C-17.37031063 14.95159297 -17.11427681 10.3980798 -14 5 C-9.56974656 0.43979245 -6.33593652 -1.90078096 0 0 Z " fill="#C7A847" transform="translate(210,255)"/>
<path d="M0 0 C2.07762007 2.86568285 2.53418681 4.99525502 2.296875 8.53515625 C1.45093967 11.966652 -0.41313409 13.44938172 -3.1875 15.5 C-7.8089383 17.7102531 -11.24858283 17.84697741 -16.1875 16.5 C-19.1875 14.4375 -19.1875 14.4375 -21.1875 11.5 C-21.41352836 7.63491496 -20.40548092 4.15394277 -19.1875 0.5 C-13.24774875 -2.61627795 -6.04115744 -2.84289762 0 0 Z " fill="#C8A844" transform="translate(245.1875,211.5)"/>
<path d="M0 0 C0.33 0.99 0.66 1.98 1 3 C-0.78673205 4.5058745 -2.57953508 6.0045485 -4.375 7.5 C-5.37273437 8.3353125 -6.37046875 9.170625 -7.3984375 10.03125 C-10 12 -10 12 -12 12 C-12.66 13.32 -13.32 14.64 -14 16 C-14.66 16 -15.32 16 -16 16 C-15.34 17.98 -14.68 19.96 -14 22 C-11.65519274 22.33473327 -11.65519274 22.33473327 -9 22 C-6.9650824 20.27891561 -6.9650824 20.27891561 -5.3125 18 C-4.24524444 16.6369419 -3.14815317 15.29564891 -2 14 C-1.34 14 -0.68 14 0 14 C-0.56789491 22.89702021 -5.29316165 29.29017599 -10.65625 36.14453125 C-12.20054391 38.16160943 -12.20054391 38.16160943 -13.625 41.375 C-15.17094009 44.32634016 -16.05509831 44.71385926 -19 46 C-18.91621094 45.35933594 -18.83242187 44.71867187 -18.74609375 44.05859375 C-18.12154407 38.75387429 -18.01648171 34.24543086 -19 29 C-19 28.34 -19 27.68 -19 27 C-22.54518884 28.39759905 -22.54518884 28.39759905 -26 30 C-22.32515059 17.14735408 -10.34722672 7.71935962 0 0 Z M-18 32 C-17 34 -17 34 -17 34 Z " fill="#C7A94A" transform="translate(205,37)"/>
<path d="M0 0 C12.86702173 -0.44031633 26.14039602 1.53280373 37 9 C37 9.66 37 10.32 37 11 C26.35101232 11.35496626 17.08337757 9.97337533 7.47265625 5.21875 C5.02260531 4.01114195 2.54689213 2.98413005 0 2 C0 1.34 0 0.68 0 0 Z " fill="#F1E7C6" transform="translate(194,115)"/>
<path d="M0 0 C-2.14357015 2.14357015 -3.07927111 2.47959601 -5.9375 3.1875 C-6.62714844 3.36667969 -7.31679688 3.54585937 -8.02734375 3.73046875 C-10 4 -10 4 -13 3 C-15.00894394 3.63920943 -17.00779443 4.31039038 -19 5 C-20.175625 5.165 -21.35125 5.33 -22.5625 5.5 C-25.83584635 5.97612311 -28.13244248 6.37246736 -31 8 C-31.9590625 9.546875 -31.9590625 9.546875 -32.9375 11.125 C-33.618125 12.07375 -34.29875 13.0225 -35 14 C-36.99954746 14.04254356 -39.00041636 14.04080783 -41 14 C-43.60416349 16.18668622 -43.60416349 16.18668622 -46 19 C-47.07022346 19.89098701 -48.1537341 20.76625838 -49.25 21.625 C-52.20737266 23.76996366 -52.20737266 23.76996366 -53 27 C-53.62777344 27.29777344 -54.25554687 27.59554687 -54.90234375 27.90234375 C-57.63248455 29.33096491 -58.22938919 30.82148339 -59.5625 33.5625 C-60.75390625 36.00390625 -60.75390625 36.00390625 -62 38 C-63.485 38.495 -63.485 38.495 -65 39 C-63.01647362 30.40471901 -56.72612089 24.2639207 -50 19 C-48.87271484 17.83404297 -48.87271484 17.83404297 -47.72265625 16.64453125 C-38.95828043 8.13164397 -28.84756431 3.58234336 -17 1 C-16.05769531 0.76539063 -15.11539063 0.53078125 -14.14453125 0.2890625 C-9.05782801 -0.89603931 -5.1111152 -1.111112 0 0 Z " fill="#C9B15D" transform="translate(303,9)"/>
<path d="M0 0 C7.57491763 -0.61088045 12.59070951 0.89296367 19 5 C20.00846899 5.99145867 21.00986539 6.99023099 22 8 C24.59915538 9.19027984 24.59915538 9.19027984 27 10 C27 10.66 27 11.32 27 12 C28.32 12.66 29.64 13.32 31 14 C25.93973829 15.6867539 20.658494 14.12036533 15.8125 12.078125 C14.49293474 11.40803327 13.18256342 10.71947785 11.8828125 10.01171875 C10.01875899 9.01008004 8.14302694 8.18093893 6.1875 7.375 C3 6 3 6 0 4 C0 2.68 0 1.36 0 0 Z " fill="#F2EBCE" transform="translate(251,92)"/>
<path d="M0 0 C0.66 0 1.32 0 2 0 C2.2884842 5.00559071 1.25188487 9.17461573 -0.3125 13.875 C-0.54106689 14.58172852 -0.76963379 15.28845703 -1.00512695 16.01660156 C-5.6963246 30.40050719 -5.6963246 30.40050719 -8 34 C-9.485 34.495 -9.485 34.495 -11 35 C-12.04092245 23.34166855 -7.51019643 10.64009856 -1 1 C-0.67 0.67 -0.34 0.34 0 0 Z " fill="#F4EAC6" transform="translate(142,94)"/>
<path d="M0 0 C-1.35745709 8.93833282 -11.10192248 16.30412129 -17.73828125 21.63671875 C-20 23 -20 23 -24 23 C-23.5096132 18.43122963 -21.85153003 16.25983432 -18.75 12.9375 C-17.98171875 12.10089844 -17.2134375 11.26429687 -16.421875 10.40234375 C-5.93495935 0 -5.93495935 0 0 0 Z " fill="#F3EDD1" transform="translate(273,33)"/>
<path d="M0 0 C-4.02669966 4.74726697 -10.43264244 6.57710717 -16 9 C-16.76441406 9.34804688 -17.52882813 9.69609375 -18.31640625 10.0546875 C-23.29718571 12.16774545 -27.69967328 12.33127042 -33 12 C-32.34 10.68 -31.68 9.36 -31 8 C-30.34 8 -29.68 8 -29 8 C-29 7.34 -29 6.68 -29 6 C-28.3709375 5.81824219 -27.741875 5.63648438 -27.09375 5.44921875 C-22.98182563 4.2416506 -18.99222664 3.02818107 -15.0625 1.3125 C-10.16674303 -0.6176547 -5.1790003 -0.25704597 0 0 Z " fill="#F4EFD6" transform="translate(349,42)"/>
<path d="M0 0 C10.06623094 0.62810636 18.08363959 2.2291682 27 7 C27 7.99 27 8.98 27 10 C17.42497773 10.8957921 9.8060545 8.32752397 1 5 C0.67 3.35 0.34 1.7 0 0 Z " fill="#F6F1DA" transform="translate(370,78)"/>
<path d="M0 0 C-0.61680439 9.66326872 -6.70321211 18.85269811 -13 26 C-13.99 26 -14.98 26 -16 26 C-15.76691431 18.6578009 -9.21866406 0 0 0 Z " fill="#F5EED5" transform="translate(205,51)"/>
<path d="M0 0 C29.13902594 -0.20638953 29.13902594 -0.20638953 42 1 C42 0.67 42 0.34 42 0 C45.63 0 49.26 0 53 0 C53.495 0.99 53.495 0.99 54 2 C55.32 2 56.64 2 58 2 C58.495 3.485 58.495 3.485 59 5 C55.23397109 5.08012827 51.62539554 4.9988552 47.88671875 4.53125 C42.84699549 3.95126755 37.81678725 3.66064391 32.75 3.4375 C31.34210205 3.37381226 31.34210205 3.37381226 29.90576172 3.30883789 C19.93667524 2.89588273 9.97544219 2.90820145 0 3 C0 2.01 0 1.02 0 0 Z " fill="#CAAF51" transform="translate(210,194)"/>
<path d="M0 0 C3.71599191 -0.20086443 4.77208445 -0.1519437 8 2 C8 2.66 8 3.32 8 4 C8.70125 4.2475 9.4025 4.495 10.125 4.75 C13.40586602 6.17646349 16.1386984 7.8540238 19 10 C19.33 10.99 19.66 11.98 20 13 C14.56466759 12.50839669 10.7970995 11.12206673 6.0625 8.4375 C4.91910156 7.79683594 3.77570313 7.15617187 2.59765625 6.49609375 C1.31181641 5.75552734 1.31181641 5.75552734 0 5 C0 3.35 0 1.7 0 0 Z " fill="#F7F4E1" transform="translate(319,88)"/>
<path d="M0 0 C1.01369884 2.62226288 1.11144697 3.71648638 0.06640625 6.375 C-6.98761308 18.6874701 -14.58454605 31.21578568 -25 41 C-24.62403791 38.21788056 -24.32681541 36.4120716 -22.5625 34.1875 C-21 33 -21 33 -19 33 C-19 31.68 -19 30.36 -19 29 C-17.35570171 27.31126121 -15.68615782 25.64694485 -14 24 C-12.95191959 22.02477154 -11.9479589 20.02518491 -11 18 C-8.44897959 14.2244898 -8.44897959 14.2244898 -6 13 C-5.12626819 10.98852038 -5.12626819 10.98852038 -4.4375 8.625 C-4.18871094 7.83351563 -3.93992187 7.04203125 -3.68359375 6.2265625 C-3.34521484 5.12441406 -3.34521484 5.12441406 -3 4 C-2.67 3.01 -2.34 2.02 -2 1 C-1.34 0.67 -0.68 0.34 0 0 Z " fill="#CBB464" transform="translate(303,12)"/>
<path d="M0 0 C1.89772191 0.25726693 3.79315677 0.53143339 5.6875 0.8125 C6.74324219 0.96332031 7.79898437 1.11414063 8.88671875 1.26953125 C12.10964336 2.02572561 14.23263908 3.23102148 17 5 C17.66 5 18.32 5 19 5 C19 5.66 19 6.32 19 7 C19.86625 7.268125 20.7325 7.53625 21.625 7.8125 C24.92704895 8.97433204 27.89991744 10.38256562 31 12 C32.175625 12.5878125 32.175625 12.5878125 33.375 13.1875 C33.91125 13.455625 34.4475 13.72375 35 14 C34.01 14.66 33.02 15.32 32 16 C30.97261719 15.48050781 29.94523437 14.96101562 28.88671875 14.42578125 C19.39104552 9.64061436 9.90027097 4.90383687 0 1 C0 0.67 0 0.34 0 0 Z " fill="#C9B058" transform="translate(304,207)"/>
<path d="M0 0 C1.32 0.33 2.64 0.66 4 1 C3.42556152 1.39791748 2.85112305 1.79583496 2.25927734 2.20581055 C-0.37083728 4.03014454 -2.99793147 5.85878261 -5.625 7.6875 C-6.52863281 8.31333984 -7.43226563 8.93917969 -8.36328125 9.58398438 C-12.19808787 12.25715249 -15.97998467 14.9036304 -19.5234375 17.95703125 C-22 20 -22 20 -24 20 C-23.34 18.35 -22.68 16.7 -22 15 C-20.68 15 -19.36 15 -18 15 C-17.9175 14.38125 -17.835 13.7625 -17.75 13.125 C-17 11 -17 11 -15.0625 9.6875 C-14.381875 9.460625 -13.70125 9.23375 -13 9 C-12.34 9.33 -11.68 9.66 -11 10 C-10.67 9.01 -10.34 8.02 -10 7 C-9.01 7 -8.02 7 -7 7 C-7 6.34 -7 5.68 -7 5 C-6.01 5 -5.02 5 -4 5 C-4 4.34 -4 3.68 -4 3 C-3.01 3 -2.02 3 -1 3 C-0.67 2.01 -0.34 1.02 0 0 Z " fill="#CEB366" transform="translate(163,127)"/>
<path d="M0 0 C6.57791873 0.41044485 12.74051886 0.86608597 19 3 C16.05613377 4.47193312 13.62609964 3.84936173 10.375 3.5625 C9.18648438 3.46066406 7.99796875 3.35882813 6.7734375 3.25390625 C5.85820312 3.17011719 4.94296875 3.08632812 4 3 C5.96822886 4.96822886 9.34808709 4.66248381 12 5 C12 5.66 12 6.32 12 7 C14.64 7.66 17.28 8.32 20 9 C15.30227464 10.17443134 12.61845553 9.14389742 8.25 7.5625 C7.55261719 7.31951172 6.85523438 7.07652344 6.13671875 6.82617188 C4.42114902 6.22689752 2.71010285 5.61470115 1 5 C0.67 3.35 0.34 1.7 0 0 Z " fill="#EDE3B8" transform="translate(370,78)"/>
<path d="M0 0 C0.33 0 0.66 0 1 0 C1.16682272 4.92127034 1.24828052 8.50343896 -1 13 C1.0343459 11.58480285 1.90410393 10.45017877 2.421875 8.01953125 C2.66273952 6.01823046 2.83532741 4.0090056 3 2 C3.66 2 4.32 2 5 2 C5.33 1.34 5.66 0.68 6 0 C5.01643071 7.04028542 3.73185283 12.89333173 0 19 C-0.99 19.33 -1.98 19.66 -3 20 C-3.35482211 12.78528371 -2.1591338 6.87581298 0 0 Z " fill="#F9F0D3" transform="translate(134,109)"/>
<path d="M0 0 C5.33313755 0.55918657 9.36835028 2.39748927 14.0625 4.8125 C15.10374023 5.32780273 15.10374023 5.32780273 16.16601562 5.85351562 C20.1580207 7.87416017 23.59796578 10.04891768 27 13 C26.67 13.66 26.34 14.32 26 15 C24.02 14.01 22.04 13.02 20 12 C20 11.34 20 10.68 20 10 C19.41500732 9.867146 18.83001465 9.73429199 18.22729492 9.59741211 C14.75022018 8.66478009 11.563703 7.0813779 8.3125 5.5625 C7.62349609 5.24990234 6.93449219 4.93730469 6.22460938 4.61523438 C1.1207259 2.24145179 1.1207259 2.24145179 0 0 Z " fill="#CEAF6A" transform="translate(390,67)"/>
<path d="M0 0 C17.6273717 -0.83608087 17.6273717 -0.83608087 24 4 C24.33 4.99 24.66 5.98 25 7 C21.73239437 12.63380282 21.73239437 12.63380282 19 14 C19 12.68 19 11.36 19 10 C19.66 10 20.32 10 21 10 C21 8.35 21 6.7 21 5 C16.5600324 2.8456962 12.52581226 2.58254154 7.6875 2.375 C6.57665039 2.31699219 6.57665039 2.31699219 5.44335938 2.2578125 C3.62928691 2.16418295 1.81467884 2.08103149 0 2 C0 1.34 0 0.68 0 0 Z " fill="#C6AC62" transform="translate(358,29)"/>
<path d="M0 0 C0.8971875 0.433125 0.8971875 0.433125 1.8125 0.875 C2.1425 1.865 2.4725 2.855 2.8125 3.875 C8.7525 4.205 14.6925 4.535 20.8125 4.875 C20.8125 5.205 20.8125 5.535 20.8125 5.875 C7.93936455 7.08845129 -2.84412323 6.89176926 -15.1875 2.875 C-12.1875 1.875 -12.1875 1.875 -9.25 2.5 C-6.17730885 3.22423696 -6.17730885 3.22423696 -4.0625 1.375 C-2.1875 -0.125 -2.1875 -0.125 0 0 Z " fill="#C9AE58" transform="translate(394.1875,97.125)"/>
<path d="M0 0 C-0.59885941 3.3010299 -1.69685597 5.21425023 -3.875 7.75 C-4.38804687 8.36359375 -4.90109375 8.9771875 -5.4296875 9.609375 C-7 11 -7 11 -10 11 C-10 11.66 -10 12.32 -10 13 C-10.66 13 -11.32 13 -12 13 C-12.33 11.68 -12.66 10.36 -13 9 C-12.01 8.67 -11.02 8.34 -10 8 C-9.67 7.34 -9.34 6.68 -9 6 C-8.34 6 -7.68 6 -7 6 C-6.8453125 5.071875 -6.8453125 5.071875 -6.6875 4.125 C-5.52284543 0.52515862 -3.5849033 0 0 0 Z " fill="#F7F5E6" transform="translate(273,33)"/>
<path d="M0 0 C7.67965109 3.19246466 14.07771399 11.43695199 19 18 C19 18.66 19 19.32 19 20 C18.34 20 17.68 20 17 20 C15.59765625 18.5390625 15.59765625 18.5390625 14.0625 16.625 C12.08013383 14.16098476 10.69300345 12.79533563 8 11 C8 10.34 8 9.68 8 9 C7.01 8.67 6.02 8.34 5 8 C5 7.01 5 6.02 5 5 C3.7934375 4.814375 3.7934375 4.814375 2.5625 4.625 C1.716875 4.41875 0.87125 4.2125 0 4 C-0.33 3.34 -0.66 2.68 -1 2 C-0.67 1.34 -0.34 0.68 0 0 Z " fill="#D1BE70" transform="translate(348,89)"/>
<path d="M0 0 C0.66 0.33 1.32 0.66 2 1 C-4.11719806 9.2069241 -13.55955609 17.13932683 -24 19 C-24 18.34 -24 17.68 -24 17 C-23.01 17 -22.02 17 -21 17 C-21 16.34 -21 15.68 -21 15 C-19.72125 14.7525 -18.4425 14.505 -17.125 14.25 C-13.73252682 13.48009414 -13.73252682 13.48009414 -11.5 10.875 C-11.335 10.25625 -11.17 9.6375 -11 9 C-9.68 9 -8.36 9 -7 9 C-6.773125 8.443125 -6.54625 7.88625 -6.3125 7.3125 C-4.64103234 4.36753316 -2.44723648 2.31843456 0 0 Z " fill="#C9B365" transform="translate(393,386)"/>
<path d="M0 0 C-1.39841887 2.79683775 -3.438439 3.08716062 -6.22265625 4.203125 C-8.16801876 4.99699103 -8.16801876 4.99699103 -10.25 6.6875 C-12 8 -12 8 -15 8 C-15 8.66 -15 9.32 -15 10 C-16.75 11.5078125 -16.75 11.5078125 -19 13.125 C-19.7425 13.66382813 -20.485 14.20265625 -21.25 14.7578125 C-21.8275 15.16773437 -22.405 15.57765625 -23 16 C-20.93687451 9.28891363 -15.55930824 5.89076755 -10 2 C-3.18060985 -1.59030493 -3.18060985 -1.59030493 0 0 Z " fill="#D4BF78" transform="translate(321,36)"/>
<path d="M0 0 C2.21980333 2.04061062 3.57667936 3.82625484 4.7890625 6.58203125 C5.09070313 7.26716797 5.39234375 7.95230469 5.703125 8.65820312 C6.00734375 9.36912109 6.3115625 10.08003906 6.625 10.8125 C6.93695313 11.51181641 7.24890625 12.21113281 7.5703125 12.93164062 C9.31412725 16.94917934 10.48988815 20.60890201 11 25 C10.01 24.67 9.02 24.34 8 24 C8 23.34 8 22.68 8 22 C7.34 21.67 6.68 21.34 6 21 C6.04125 20.278125 6.0825 19.55625 6.125 18.8125 C5.92703765 14.35834719 4.12788841 11.18432505 1.875 7.4375 C0 4 0 4 0 0 Z " fill="#C7B063" transform="translate(396,253)"/>
<path d="M0 0 C0.66 0 1.32 0 2 0 C1.61121002 2.81872737 1.29189635 3.77195598 -1 5.5625 C-1.66 6.036875 -2.32 6.51125 -3 7 C-3.33 7.99 -3.66 8.98 -4 10 C-4.94166016 10.44666016 -4.94166016 10.44666016 -5.90234375 10.90234375 C-8.63248455 12.33096491 -9.22938919 13.82148339 -10.5625 16.5625 C-11.75390625 19.00390625 -11.75390625 19.00390625 -13 21 C-13.99 21.33 -14.98 21.66 -16 22 C-14.01455341 13.39639809 -7.72118949 7.2809346 -1 2 C-0.67 1.34 -0.34 0.68 0 0 Z " fill="#D4BF7A" transform="translate(254,26)"/>
<path d="M0 0 C0 0.33 0 0.66 0 1 C-3.95755353 1.96157243 -7.91618009 2.91865586 -11.875 3.875 C-13.53789062 4.27912109 -13.53789062 4.27912109 -15.234375 4.69140625 C-21.79819335 6.27444479 -28.36615951 7.74079011 -35 9 C-32.40635046 6.40635046 -30.13943651 6.0108941 -26.625 5 C-22.13275542 3.73334883 -22.13275542 3.73334883 -17.85546875 1.9140625 C-12.62525737 -0.66250479 -5.71623915 -0.12162211 0 0 Z " fill="#CCB566" transform="translate(183,199)"/>
<path d="M0 0 C0 3.61165822 -0.61753391 4.3710719 -3 7 C-4.65532623 8.01866229 -6.32260138 9.01810813 -8 10 C-10.47609824 12.12236992 -11.81159716 13.48503223 -12.9375 16.5625 C-14.32095315 19.73630429 -15.88948153 20.60026669 -19 22 C-19.66 21.67 -20.32 21.34 -21 21 C-19.71937515 19.2925002 -18.38232443 17.62626404 -17 16 C-16.34 16 -15.68 16 -15 16 C-14.73703125 15.41089844 -14.4740625 14.82179687 -14.203125 14.21484375 C-11.04935422 8.40903845 -5.08096437 4.08955669 0 0 Z " fill="#D1B063" transform="translate(79,225)"/>
<path d="M0 0 C2.0625 0.4375 2.0625 0.4375 4 1 C4 1.66 4 2.32 4 3 C4.598125 2.79375 5.19625 2.5875 5.8125 2.375 C8 2 8 2 11 4 C11 4.99 11 5.98 11 7 C13.64 7.66 16.28 8.32 19 9 C19 9.66 19 10.32 19 11 C14.15340923 10.40895235 10.39251833 9.02055843 6 7 C6 6.34 6 5.68 6 5 C5.401875 4.896875 4.80375 4.79375 4.1875 4.6875 C1.71756736 3.91123545 0.67748765 2.92911079 -1 1 C-0.67 0.67 -0.34 0.34 0 0 Z " fill="#D1B654" transform="translate(243,104)"/>
<path d="M0 0 C1.051875 0.309375 2.10375 0.61875 3.1875 0.9375 C9.03089403 2.42203794 15.00134801 2.65251711 21 3 C21.33 2.01 21.66 1.02 22 0 C22.66 0.33 23.32 0.66 24 1 C26.3329866 1.04022391 28.66706666 1.04320247 31 1 C30.67 1.99 30.34 2.98 30 4 C19.87088636 5.68439193 10.08979372 4.26514512 0 3 C0 2.01 0 1.02 0 0 Z " fill="#D5BD56" transform="translate(283,122)"/>
<path d="M0 0 C5.841744 -0.35050464 9.8531808 -0.16727335 15 3 C13 4 13 4 9.875 3.0625 C8.92625 2.711875 7.9775 2.36125 7 2 C7.33 3.98 7.66 5.96 8 8 C5.0280615 6.87548273 2.66559313 5.77706209 0 4 C0 2.68 0 1.36 0 0 Z " fill="#EADFB4" transform="translate(251,92)"/>
<path d="M0 0 C-9.23749105 5.0369418 -16.56824147 6.18890508 -27 6 C-25.86695008 2.60085025 -24.87481525 1.94745549 -22 0 C-21.34 0.33 -20.68 0.66 -20 1 C-20.99 2.485 -20.99 2.485 -22 4 C-15.51621696 3.5748339 -10.30372231 2.19701754 -4.28515625 -0.2578125 C-2 -1 -2 -1 0 0 Z " fill="#D5C27D" transform="translate(338,50)"/>
<path d="M0 0 C0.33 0.99 0.66 1.98 1 3 C-0.78673205 4.5058745 -2.57953508 6.0045485 -4.375 7.5 C-5.37273437 8.3353125 -6.37046875 9.170625 -7.3984375 10.03125 C-10 12 -10 12 -12 12 C-12.226875 12.598125 -12.45375 13.19625 -12.6875 13.8125 C-14.33811133 16.56351888 -16.1972081 17.52484637 -19 19 C-15.37065067 10.7746907 -7.02969739 5.20718325 0 0 Z " fill="#CBB469" transform="translate(205,37)"/>
<path d="M0 0 C0.66 0.33 1.32 0.66 2 1 C1.67 1.66 1.34 2.32 1 3 C0.34 3 -0.32 3 -1 3 C-1.33 3.99 -1.66 4.98 -2 6 C-2.99 6.33 -3.98 6.66 -5 7 C-6.1446875 8.2065625 -6.1446875 8.2065625 -7.3125 9.4375 C-10.17295492 12.16491051 -12.21806528 13.03252833 -16 14 C-16.66 13.34 -17.32 12.68 -18 12 C-16.80375 11.443125 -15.6075 10.88625 -14.375 10.3125 C-9.98920829 8.12349917 -5.2625081 5.52501621 -3 1 C-2.01 0.67 -1.02 0.34 0 0 Z " fill="#CAB15E" transform="translate(388,310)"/>
<path d="M0 0 C5.28137429 0.51525603 8.57221156 2.25477117 13 5 C13 5.66 13 6.32 13 7 C7.22240116 7.12036664 1.72040011 6.8320582 -4 6 C-4 5.67 -4 5.34 -4 5 C-1.69 4.34 0.62 3.68 3 3 C2.01 2.67 1.02 2.34 0 2 C0 1.34 0 0.68 0 0 Z " fill="#F0E7BF" transform="translate(218,119)"/>
<path d="M0 0 C4.875 4.625 4.875 4.625 6 8 C6.66 8 7.32 8 8 8 C8 8.66 8 9.32 8 10 C9.32 9.67 10.64 9.34 12 9 C12.99 10.98 13.98 12.96 15 15 C13.35 14.67 11.7 14.34 10 14 C10 13.34 10 12.68 10 12 C9.443125 11.938125 8.88625 11.87625 8.3125 11.8125 C4.96039041 10.63473177 3.30214886 8.66564604 1 6 C-0.3125 3.1875 -0.3125 3.1875 -1 1 C-0.67 0.67 -0.34 0.34 0 0 Z " fill="#D5BF4F" transform="translate(298,88)"/>
<path d="M0 0 C4.75 0.875 4.75 0.875 7 2 C7 3.32 7 4.64 7 6 C-6.6332574 6.3690205 -6.6332574 6.3690205 -13 4 C-9.85069107 2.95023036 -7.61185544 2.89868405 -4.3125 2.9375 C-3.31863281 2.94652344 -2.32476562 2.95554687 -1.30078125 2.96484375 C-0.16189453 2.98224609 -0.16189453 2.98224609 1 3 C0.67 2.01 0.34 1.02 0 0 Z " fill="#C8AF58" transform="translate(396,84)"/>
<path d="M0 0 C0.66 0.33 1.32 0.66 2 1 C-1.4380628 4.74142128 -4.49747233 6.74873617 -9 9 C-10.86161165 10.46864885 -12.62751975 12.00831095 -14.38671875 13.59765625 C-16 15 -16 15 -19 17 C-17.40907948 12.86360664 -14.39525082 9.76786752 -11 7 C-10.34 7 -9.68 7 -9 7 C-9 6.34 -9 5.68 -9 5 C-7.54735962 4.1361871 -6.0876837 3.28419546 -4.625 2.4375 C-3.81289062 1.96183594 -3.00078125 1.48617187 -2.1640625 0.99609375 C-1.44992188 0.66738281 -0.73578125 0.33867188 0 0 Z " fill="#CCB86D" transform="translate(156,60)"/>
<path d="M0 0 C-0.33 0.66 -0.66 1.32 -1 2 C-2.60875 1.938125 -2.60875 1.938125 -4.25 1.875 C-7.78876175 1.69208796 -7.78876175 1.69208796 -9.6875 3 C-13.29539202 4.56016952 -16.86756252 4.20870097 -20.75 4.125 C-21.54277344 4.11597656 -22.33554687 4.10695313 -23.15234375 4.09765625 C-25.10169281 4.07417012 -27.05088575 4.03830137 -29 4 C-29 3.34 -29 2.68 -29 2 C-24.91813323 1.46721367 -20.83435345 0.95084629 -16.75 0.4375 C-15.59113281 0.28603516 -14.43226563 0.13457031 -13.23828125 -0.02148438 C-12.12324219 -0.16005859 -11.00820313 -0.29863281 -9.859375 -0.44140625 C-8.83295898 -0.57232666 -7.80654297 -0.70324707 -6.74902344 -0.83813477 C-4.19301503 -0.98863508 -2.41329977 -0.79012848 0 0 Z " fill="#C6A95B" transform="translate(356,328)"/>
<path d="M0 0 C0.33 0 0.66 0 1 0 C1.125 5.75 1.125 5.75 0 8 C-0.66 8 -1.32 8 -2 8 C-1.95875 9.258125 -1.9175 10.51625 -1.875 11.8125 C-1.7609626 15.29064073 -1.94074319 15.91111478 -4 19 C-4.66 19 -5.32 19 -6 19 C-5.855625 18.360625 -5.71125 17.72125 -5.5625 17.0625 C-4.82763202 13.06155212 -4.41418889 9.04495104 -4 5 C-3.34 5 -2.68 5 -2 5 C-1.855625 4.360625 -1.71125 3.72125 -1.5625 3.0625 C-1 1 -1 1 0 0 Z " fill="#F6F4E8" transform="translate(139,103)"/>
<path d="M0 0 C1.32 0.33 2.64 0.66 4 1 C3.67 5.29 3.34 9.58 3 14 C1.68 13.34 0.36 12.68 -1 12 C-2.45844257 7.41632334 -1.77783897 4.39230803 0 0 Z " fill="#C9B141" transform="translate(195,261)"/>
<path d="M0 0 C0.66 0.33 1.32 0.66 2 1 C1.21496094 1.70125 0.42992188 2.4025 -0.37890625 3.125 C-6.30205968 8.45904285 -11.95545681 13.80089586 -17 20 C-18 18 -18 18 -17.875 16.0625 C-16.6425895 13.15753239 -14.69746521 12.54140869 -12 11 C-10.98199424 9.68036291 -9.97751635 8.34990354 -9 7 C-8.34 7 -7.68 7 -7 7 C-6.896875 6.38125 -6.79375 5.7625 -6.6875 5.125 C-6 3 -6 3 -3 1 C-2.01 0.67 -1.02 0.34 0 0 Z " fill="#C9B363" transform="translate(87,240)"/>
<path d="M0 0 C1.08117043 2.72200556 1.09904923 3.7601966 -0.0390625 6.515625 C-0.56242187 7.41796875 -1.08578125 8.3203125 -1.625 9.25 C-2.17671875 10.21035156 -2.7284375 11.17070312 -3.296875 12.16015625 C-5.48383967 15.80676935 -7.70396139 19.420881 -10 23 C-10.96956854 19.94813661 -11.1635271 19.33484121 -9.6875 16.3125 C-8 14 -8 14 -6 13 C-5.12626819 10.98852038 -5.12626819 10.98852038 -4.4375 8.625 C-4.18871094 7.83351563 -3.93992187 7.04203125 -3.68359375 6.2265625 C-3.34521484 5.12441406 -3.34521484 5.12441406 -3 4 C-2.67 3.01 -2.34 2.02 -2 1 C-1.34 0.67 -0.68 0.34 0 0 Z " fill="#D8BF79" transform="translate(303,12)"/>
<path d="M0 0 C1.65 0 3.3 0 5 0 C3.32873916 3.34252168 -0.36973514 4.3140976 -3.625 5.875 C-8.86615192 8.41353215 -13.97253667 11.05741648 -19 14 C-19.33 13.01 -19.66 12.02 -20 11 C-18.9275 10.566875 -17.855 10.13375 -16.75 9.6875 C-13.82249233 8.44552705 -11.51541059 6.95643046 -9 5 C-8.34 5 -7.68 5 -7 5 C-6.67 4.34 -6.34 3.68 -6 3 C-4.35 3 -2.7 3 -1 3 C-0.67 2.01 -0.34 1.02 0 0 Z " fill="#D0B35B" transform="translate(123,216)"/>
<path d="M0 0 C2.75006608 -0.0270203 5.49986546 -0.04684883 8.25 -0.0625 C9.02730469 -0.07087891 9.80460938 -0.07925781 10.60546875 -0.08789062 C11.73662109 -0.09272461 11.73662109 -0.09272461 12.890625 -0.09765625 C13.92751465 -0.10551147 13.92751465 -0.10551147 14.98535156 -0.11352539 C17.09973898 0.00562029 18.96641515 0.42381763 21 1 C21 1.66 21 2.32 21 3 C14.07 3 7.14 3 0 3 C0 2.01 0 1.02 0 0 Z " fill="#D6B456" transform="translate(210,194)"/>
<path d="M0 0 C3.44958451 2.66558803 3.94010343 5.91182753 5 10 C5.33 10.33 5.66 10.66 6 11 C6.04063832 12.66617115 6.042721 14.33388095 6 16 C4.02 16 2.04 16 0 16 C-0.33 15.01 -0.66 14.02 -1 13 C-0.34 12.01 0.32 11.02 1 10 C1.39013716 8.0103005 1.73202649 6.00980131 2 4 C1.34 4 0.68 4 0 4 C0 2.68 0 1.36 0 0 Z " fill="#C8A947" transform="translate(307,108)"/>
<path d="M0 0 C1 2 1 2 0.3984375 3.875 C-2.35424735 9.59049832 -2.35424735 9.59049832 -5.5625 11.625 C-8 12 -8 12 -11 10 C-9.68 9.34 -8.36 8.68 -7 8 C-7 6.68 -7 5.36 -7 4 C-5.68 4 -4.36 4 -3 4 C-2.67 3.01 -2.34 2.02 -2 1 C-1.34 0.67 -0.68 0.34 0 0 Z " fill="#CCAB46" transform="translate(399,376)"/>
<path d="M0 0 C4.875 4.625 4.875 4.625 6 8 C6.99 8.33 7.98 8.66 9 9 C12 12.44444444 12 12.44444444 12 15 C12.66 15.33 13.32 15.66 14 16 C13.67 16.99 13.34 17.98 13 19 C9.91910327 16.22719294 8.31224548 13.93673644 7 10 C6.34 10 5.68 10 5 10 C3.98133771 8.34467377 2.98189187 6.67739862 2 5 C1.34 4.67 0.68 4.34 0 4 C0 2.68 0 1.36 0 0 Z " fill="#CDB066" transform="translate(366,244)"/>
<path d="M0 0 C0.99 0 1.98 0 3 0 C2.67 1.65 2.34 3.3 2 5 C2.99 5.33 3.98 5.66 5 6 C2.69 8.31 0.38 10.62 -2 13 C-2.66 12.34 -3.32 11.68 -4 11 C-2.95902388 7.13351728 -1.96301592 3.50538557 0 0 Z " fill="#C8A949" transform="translate(272,49)"/>
<path d="M0 0 C1.7492214 -0.08142927 3.49954542 -0.13938541 5.25 -0.1875 C6.22453125 -0.22230469 7.1990625 -0.25710937 8.203125 -0.29296875 C11 0 11 0 15 3 C11.7 2.67 8.4 2.34 5 2 C5 3.32 5 4.64 5 6 C3.68 6 2.36 6 1 6 C1 5.01 1 4.02 1 3 C0.34 3 -0.32 3 -1 3 C-0.67 2.01 -0.34 1.02 0 0 Z " fill="#CEB765" transform="translate(365,76)"/>
<path d="M0 0 C-0.33 0.66 -0.66 1.32 -1 2 C-3.31665039 2.50244141 -3.31665039 2.50244141 -6.34765625 2.8515625 C-7.96704102 3.04492188 -7.96704102 3.04492188 -9.61914062 3.2421875 C-10.75544922 3.36851562 -11.89175781 3.49484375 -13.0625 3.625 C-14.20267578 3.7590625 -15.34285156 3.893125 -16.51757812 4.03125 C-19.34420123 4.3624025 -22.17154752 4.68492069 -25 5 C-25 4.01 -25 3.02 -25 2 C-22.36 2.33 -19.72 2.66 -17 3 C-17 2.34 -17 1.68 -17 1 C-15.10440036 0.83069605 -13.20850769 0.66467136 -11.3125 0.5 C-10.25675781 0.4071875 -9.20101563 0.314375 -8.11328125 0.21875 C-5.39363975 0.0276585 -2.72460144 -0.04043935 0 0 Z " fill="#D8B752" transform="translate(372,344)"/>
<path d="M0 0 C1.21526367 0.09958008 1.21526367 0.09958008 2.45507812 0.20117188 C4.80078125 0.44921875 4.80078125 0.44921875 8.6875 1.3125 C10.23046875 3.39453125 10.23046875 3.39453125 10.6875 5.3125 C9.73230469 5.10753906 8.77710938 4.90257813 7.79296875 4.69140625 C0.09980223 3.07615056 -7.44747437 1.78669073 -15.3125 1.3125 C-15.6425 1.9725 -15.9725 2.6325 -16.3125 3.3125 C-16.3125 2.3225 -16.3125 1.3325 -16.3125 0.3125 C-10.69201019 -0.7333475 -5.6702054 -0.61461884 0 0 Z " fill="#C8B260" transform="translate(209.3125,113.6875)"/>
<path d="M0 0 C-0.51831322 3.83551785 -1.25627013 5.36601932 -4 8 C-4.433125 9.2065625 -4.433125 9.2065625 -4.875 10.4375 C-6.28477464 13.64865334 -8.17714301 14.99428583 -11 17 C-11.66 16.67 -12.32 16.34 -13 16 C-12.36191406 15.24074219 -11.72382813 14.48148438 -11.06640625 13.69921875 C-10.24011719 12.70535156 -9.41382813 11.71148437 -8.5625 10.6875 C-7.73878906 9.70136719 -6.91507812 8.71523438 -6.06640625 7.69921875 C-3.85878424 5.11899855 -3.85878424 5.11899855 -3 2 C-3.66 1.67 -4.32 1.34 -5 1 C-3 0 -3 0 0 0 Z " fill="#D3BD6E" transform="translate(276,31)"/>
<path d="M0 0 C1.08775909 2.66995414 1.03277399 3.89159371 0.1875 6.6875 C-2.88603839 9.93666915 -5.58485938 9.72766781 -9.91796875 9.95703125 C-10.94857422 9.97830078 -10.94857422 9.97830078 -12 10 C-12.33 9.01 -12.66 8.02 -13 7 C-10.03 7.495 -10.03 7.495 -7 8 C-6.67 7.01 -6.34 6.02 -6 5 C-4.68 5 -3.36 5 -2 5 C-1.34 3.35 -0.68 1.7 0 0 Z " fill="#C7AF52" transform="translate(273,269)"/>
<path d="M0 0 C4.82034262 0.41317222 6.90992611 2.38019915 10 6 C10 6.66 10 7.32 10 8 C10.556875 8.04125 11.11375 8.0825 11.6875 8.125 C15.24030274 9.46930374 16.70958953 12.00974189 19 15 C18.67 15.66 18.34 16.32 18 17 C17.51789063 16.50628906 17.03578125 16.01257813 16.5390625 15.50390625 C15.90742188 14.86324219 15.27578125 14.22257813 14.625 13.5625 C13.99851562 12.92441406 13.37203125 12.28632813 12.7265625 11.62890625 C11.08276939 9.92117824 11.08276939 9.92117824 9 9 C9 8.34 9 7.68 9 7 C8.443125 6.773125 7.88625 6.54625 7.3125 6.3125 C4.36753316 4.64103234 2.31843456 2.44723648 0 0 Z " fill="#CBAE5F" transform="translate(346,228)"/>
<path d="M0 0 C0.66 0.66 1.32 1.32 2 2 C-0.05576732 3.79992512 -2.11896218 5.58985409 -4.1875 7.375 C-5.0547168 8.13683594 -5.0547168 8.13683594 -5.93945312 8.9140625 C-9.14626695 11.66793652 -11.89323459 13.71615243 -16 15 C-14.625 13 -14.625 13 -13 11 C-12.34 11 -11.68 11 -11 11 C-10.67 10.01 -10.34 9.02 -10 8 C-9.34 8 -8.68 8 -8 8 C-7.67 7.01 -7.34 6.02 -7 5 C-6.01 5 -5.02 5 -4 5 C-4 4.34 -4 3.68 -4 3 C-2.68 2.67 -1.36 2.34 0 2 C0 1.34 0 0.68 0 0 Z " fill="#CEB568" transform="translate(137,146)"/>
<path d="M0 0 C4.28846161 1.49895761 7.85872827 3.73392475 11.5625 6.3125 C12.40844727 6.88000977 12.40844727 6.88000977 13.27148438 7.45898438 C16.83601717 9.9228895 19.46244818 12.49458001 22 16 C13.43902439 11.87804878 13.43902439 11.87804878 12 9 C9.68254757 7.61844182 7.36672106 6.2904858 5 5 C2.0625 3.375 2.0625 3.375 0 2 C0 1.34 0 0.68 0 0 Z " fill="#CFB86A" transform="translate(277,85)"/>
<path d="M0 0 C0.99 0.66 1.98 1.32 3 2 C2.1028125 2.2784375 2.1028125 2.2784375 1.1875 2.5625 C-2.00049313 4.65746692 -2.54355556 7.54094446 -4 11 C-7.19354839 14 -7.19354839 14 -10 14 C-9.67 12.68 -9.34 11.36 -9 10 C-8.34 10 -7.68 10 -7 10 C-6.773125 9.46375 -6.54625 8.9275 -6.3125 8.375 C-4.56617944 5.21499137 -2.3597151 2.7323017 0 0 Z " fill="#CAB052" transform="translate(68,194)"/>
<path d="M0 0 C6.93 0 13.86 0 21 0 C20.67 0.66 20.34 1.32 20 2 C17.22965863 2.24858198 14.46060931 2.47452879 11.6875 2.6875 C10.50897461 2.79674805 10.50897461 2.79674805 9.30664062 2.90820312 C8.54931641 2.96298828 7.79199219 3.01777344 7.01171875 3.07421875 C6.31522217 3.13182373 5.61872559 3.18942871 4.90112305 3.2487793 C3 3 3 3 0 0 Z " fill="#C7AB5A" transform="translate(247,333)"/>
<path d="M0 0 C0.33 0.66 0.66 1.32 1 2 C-3 5 -7 8 -11 11 C-11 10.34 -11 9.68 -11 9 C-11.99 8.67 -12.98 8.34 -14 8 C-12.23174858 6.85018626 -10.46030479 5.70528078 -8.6875 4.5625 C-7.70136719 3.92441406 -6.71523437 3.28632813 -5.69921875 2.62890625 C-3 1 -3 1 0 0 Z " fill="#CDB260" transform="translate(114,202)"/>
<path d="M0 0 C3.68927648 4.65169643 4.32428699 8.05473854 4 14 C3.34 14.66 2.68 15.32 2 16 C-0.3828125 15.9765625 -0.3828125 15.9765625 -3.125 15.625 C-4.03507812 15.51414062 -4.94515625 15.40328125 -5.8828125 15.2890625 C-6.58148438 15.19367188 -7.28015625 15.09828125 -8 15 C-8 14.67 -8 14.34 -8 14 C-4.7 14 -1.4 14 2 14 C1.855625 12.700625 1.71125 11.40125 1.5625 10.0625 C1.44068359 8.96615234 1.44068359 8.96615234 1.31640625 7.84765625 C1.18113386 5.98859771 1.18113386 5.98859771 0 5 C-0.04063832 3.33382885 -0.042721 1.66611905 0 0 Z " fill="#CEB567" transform="translate(367,109)"/>
<path d="M0 0 C2.5 1 2.5 1 5 3 C5.54889545 7.32255167 5.71716742 9.69605923 3.625 13.5 C2 15 2 15 0 15 C0 14.34 0 13.68 0 13 C-0.66 13 -1.32 13 -2 13 C-2 12.34 -2 11.68 -2 11 C-0.35 11 1.3 11 3 11 C3 8.36 3 5.72 3 3 C1.68 2.34 0.36 1.68 -1 1 C-0.67 0.67 -0.34 0.34 0 0 Z " fill="#C6AE5C" transform="translate(242,211)"/>
<path d="M0 0 C0.66 0.33 1.32 0.66 2 1 C0.07947315 3.02722279 -1.96149928 4.80465567 -4.125 6.5625 C-7.00332155 8.67912299 -7.00332155 8.67912299 -8 11 C-10.32156597 11.40729228 -12.6568787 11.74438677 -15 12 C-10.58990583 7.14889642 -5.41995647 3.651893 0 0 Z " fill="#C8AF5A" transform="translate(95,213)"/>
<path d="M0 0 C3.39672268 0.45725113 5.24234171 1.7959627 7.75 4.0625 C8.67039062 4.88427734 8.67039062 4.88427734 9.609375 5.72265625 C10.29773438 6.35494141 10.29773438 6.35494141 11 7 C10.01 7.33 9.02 7.66 8 8 C8 7.34 8 6.68 8 6 C6.35 6.33 4.7 6.66 3 7 C1.68 5.02 0.36 3.04 -1 1 C-0.67 0.67 -0.34 0.34 0 0 Z " fill="#CAAF5D" transform="translate(337,81)"/>
<path d="M0 0 C1 2 1 2 0.07421875 4.79296875 C-0.61220703 6.47326172 -0.61220703 6.47326172 -1.3125 8.1875 C-3.13888529 12.76360982 -4.77972439 17.22983169 -6 22 C-6.33 22 -6.66 22 -7 22 C-7.32158653 16.64022449 -6.53409332 13.67832612 -4 9 C-3.649375 7.7625 -3.29875 6.525 -2.9375 5.25 C-2 2 -2 2 0 0 Z " fill="#C2AC60" transform="translate(406,311)"/>
<path d="M0 0 C0.66 0 1.32 0 2 0 C0.41332422 3.90285767 -2.13350481 6.33520982 -5.125 9.25 C-6.03507812 10.14203125 -6.94515625 11.0340625 -7.8828125 11.953125 C-8.58148438 12.62859375 -9.28015625 13.3040625 -10 14 C-10.33 13.34 -10.66 12.68 -11 12 C-10.0625 9.875 -10.0625 9.875 -9 8 C-8.34 8 -7.68 8 -7 8 C-7 7.34 -7 6.68 -7 6 C-6.401875 5.7525 -5.80375 5.505 -5.1875 5.25 C-2.71222841 3.83555909 -1.66569196 2.27139812 0 0 Z " fill="#CAB166" transform="translate(99,178)"/>
<path d="M0 0 C0.99 0.33 1.98 0.66 3 1 C-1.26587874 5.54109672 -6.03612328 9.24735246 -11 13 C-11.33 12.34 -11.66 11.68 -12 11 C-11.67 10.34 -11.34 9.68 -11 9 C-10.01 9 -9.02 9 -8 9 C-8 8.01 -8 7.02 -8 6 C-6.68 6 -5.36 6 -4 6 C-4 5.01 -4 4.02 -4 3 C-2.68 3 -1.36 3 0 3 C0 2.01 0 1.02 0 0 Z " fill="#C9B75B" transform="translate(116,162)"/>
<path d="M0 0 C3.35498935 1.38827146 5.15050455 2.85585774 7 6 C7 7.32 7 8.64 7 10 C6.34 10 5.68 10 5 10 C5 9.34 5 8.68 5 8 C4.34 8 3.68 8 3 8 C3 7.01 3 6.02 3 5 C1.02 5.99 1.02 5.99 -1 7 C-0.67 4.69 -0.34 2.38 0 0 Z " fill="#C9AF53" transform="translate(251,118)"/>
<path d="M0 0 C4.13937592 3.30015998 7.58662205 6.17324411 10 11 C9.01 11.33 8.02 11.66 7 12 C7 10.68 7 9.36 7 8 C5.35 8 3.7 8 2 8 C0.23537317 4.91190305 0 3.76687864 0 0 Z " fill="#CDB96F" transform="translate(424,86)"/>
<path d="M0 0 C0 0.99 0 1.98 0 3 C-0.66 2.67 -1.32 2.34 -2 2 C-7.90812499 1.42895446 -12.79244759 1.92380606 -18.23828125 4.265625 C-20.44369732 5.18495587 -22.64511533 5.63204927 -25 6 C-24.67 5.34 -24.34 4.68 -24 4 C-23.34 4 -22.68 4 -22 4 C-22 3.34 -22 2.68 -22 2 C-14.56340812 -0.01670288 -7.68395543 -0.2137731 0 0 Z " fill="#C9B05E" transform="translate(350,41)"/>
<path d="M0 0 C4 0 4 0 5.5625 1.3125 C6.036875 1.869375 6.51125 2.42625 7 3 C7.8353125 3.7734375 7.8353125 3.7734375 8.6875 4.5625 C10 6 10 6 10 8 C6.13351728 6.95902388 2.50538557 5.96301592 -1 4 C0.32 3.67 1.64 3.34 3 3 C2.01 2.01 1.02 1.02 0 0 Z " fill="#D6C37B" transform="translate(278,103)"/>
<path d="M0 0 C3.96 0.33 7.92 0.66 12 1 C12 1.66 12 2.32 12 3 C12.66 3 13.32 3 14 3 C14 3.66 14 4.32 14 5 C12.35 5 10.7 5 9 5 C9 4.34 9 3.68 9 3 C7.88625 3.061875 6.7725 3.12375 5.625 3.1875 C4.42875 3.125625 3.2325 3.06375 2 3 C1.34 2.01 0.68 1.02 0 0 Z " fill="#F6F5E8" transform="translate(373,80)"/>
<path d="M0 0 C7.02952752 0.4535179 12.5849443 2.12059087 19 5 C18.34 5.66 17.68 6.32 17 7 C16.01 6.34 15.02 5.68 14 5 C11.20810135 4.43237 8.41541102 4.05078943 5.59375 3.66015625 C2.80689684 2.95085175 1.77832699 2.20488516 0 0 Z " fill="#CFB265" transform="translate(216,103)"/>
<path d="M0 0 C1.98 0 3.96 0 6 0 C6.33 1.98 6.66 3.96 7 6 C5.02 6.33 3.04 6.66 1 7 C0.67 4.69 0.34 2.38 0 0 Z " fill="#C6A743" transform="translate(189,54)"/>
<path d="M0 0 C0.99 0.33 1.98 0.66 3 1 C2.37240135 3.92879371 1.41377341 6.36095629 0 9 C-0.66 9 -1.32 9 -2 9 C-2.6875 6.1875 -2.6875 6.1875 -3 3 C-1.5625 1.125 -1.5625 1.125 0 0 Z " fill="#CCB04C" transform="translate(51,235)"/>
<path d="M0 0 C0.66 0 1.32 0 2 0 C2.33 1.32 2.66 2.64 3 4 C3.66 4 4.32 4 5 4 C5 4.66 5 5.32 5 6 C10.94 5.505 10.94 5.505 17 5 C16.67 5.66 16.34 6.32 16 7 C11.59025038 8.23472989 7.88444895 8.30553691 3.5625 6.8125 C0.99535158 4.99671209 0.01160113 3.93364327 -1 1 C-0.67 0.67 -0.34 0.34 0 0 Z " fill="#C7B565" transform="translate(225,221)"/>
<path d="M0 0 C2.375 0.1875 2.375 0.1875 5 1 C5.66 2.65 6.32 4.3 7 6 C2.05 6 -2.9 6 -8 6 C-8 5.34 -8 4.68 -8 4 C-3.71 4.33 0.58 4.66 5 5 C5 4.34 5 3.68 5 3 C4.360625 2.87625 3.72125 2.7525 3.0625 2.625 C2.0415625 2.315625 2.0415625 2.315625 1 2 C0.67 1.34 0.34 0.68 0 0 Z " fill="#CCB66A" transform="translate(226,121)"/>
<path d="M0 0 C0.66 0.33 1.32 0.66 2 1 C-6.261959 6.74031891 -6.261959 6.74031891 -11 6 C-11.33 6.99 -11.66 7.98 -12 9 C-13.32 9 -14.64 9 -16 9 C-16 8.34 -16 7.68 -16 7 C-15.18015625 6.66226563 -14.3603125 6.32453125 -13.515625 5.9765625 C-12.43796875 5.53054687 -11.3603125 5.08453125 -10.25 4.625 C-8.64898437 3.96371094 -8.64898437 3.96371094 -7.015625 3.2890625 C-4.08584682 2.09145398 -4.08584682 2.09145398 -1.734375 0.7734375 C-1.16203125 0.51820312 -0.5896875 0.26296875 0 0 Z " fill="#CAAE5C" transform="translate(228,75)"/>
<path d="M0 0 C4.571279 0.54855348 8.67435795 1.41744803 13 3 C13 3.33 13 3.66 13 4 C9.37 4.33 5.74 4.66 2 5 C1.34 3.35 0.68 1.7 0 0 Z " fill="#CAB157" transform="translate(298,185)"/>
<path d="M0 0 C1.98 0 3.96 0 6 0 C6 0.66 6 1.32 6 2 C7.32 2.33 8.64 2.66 10 3 C8 5 8 5 4.875 5.125 C3.92625 5.08375 2.9775 5.0425 2 5 C2 4.01 2 3.02 2 2 C1.34 2 0.68 2 0 2 C0 1.34 0 0.68 0 0 Z " fill="#F7F4E7" transform="translate(212,119)"/>
<path d="M0 0 C0.33 0 0.66 0 1 0 C1 2.97 1 5.94 1 9 C0.34 9 -0.32 9 -1 9 C-1.66 12.63 -2.32 16.26 -3 20 C-3.66 20 -4.32 20 -5 20 C-4.35587386 17.22875964 -3.70977252 14.45800555 -3.0625 11.6875 C-2.88009766 10.90181641 -2.69769531 10.11613281 -2.50976562 9.30664062 C-2.33251953 8.54931641 -2.15527344 7.79199219 -1.97265625 7.01171875 C-1.81031494 6.31522217 -1.64797363 5.61872559 -1.48071289 4.90112305 C-1.06234435 3.2465594 -0.53968631 1.61905892 0 0 Z " fill="#CDB770" transform="translate(142,102)"/>
<path d="M0 0 C0 3.63 0 7.26 0 11 C-0.66 11 -1.32 11 -2 11 C-2 9.02 -2 7.04 -2 5 C-3.98 5.99 -3.98 5.99 -6 7 C-6 5.68 -6 4.36 -6 3 C-1.82142857 0 -1.82142857 0 0 0 Z " fill="#CBB059" transform="translate(146,89)"/>
<path d="M0 0 C0.44730469 0.39832031 0.89460938 0.79664063 1.35546875 1.20703125 C4.74779939 4.17984125 8.01840224 6.8282194 12 9 C9 10 9 10 7.125 9.3125 C4.51652303 7.70138187 2.23392437 6.10981746 0 4 C0 2.68 0 1.36 0 0 Z " fill="#C8AC5B" transform="translate(55,314)"/>
<path d="M0 0 C2.1875 -0.375 2.1875 -0.375 5 0 C8.00083147 2.86746118 9.85626396 4.67762846 10.3125 8.875 C10.1578125 9.926875 10.1578125 9.926875 10 11 C9.34 10.34 8.68 9.68 8 9 C8 7.68 8 6.36 8 5 C7.13375 4.814375 7.13375 4.814375 6.25 4.625 C3.97664233 3.99351176 2.0746471 3.11141809 0 2 C0 1.34 0 0.68 0 0 Z " fill="#C8AF65" transform="translate(166,225)"/>
<path d="M0 0 C0.33 0.66 0.66 1.32 1 2 C-4.42465753 8.78082192 -4.42465753 8.78082192 -8 11 C-8.66 11 -9.32 11 -10 11 C-9.34 9.35 -8.68 7.7 -8 6 C-6.68 6 -5.36 6 -4 6 C-3.8453125 5.071875 -3.8453125 5.071875 -3.6875 4.125 C-3 2 -3 2 0 0 Z " fill="#CDB158" transform="translate(149,136)"/>
<path d="M0 0 C1.16095535 2.84961767 1.06567925 3.83945073 -0.125 6.75 C-2 9 -2 9 -4.6875 9.3125 C-5.450625 9.209375 -6.21375 9.10625 -7 9 C-7 7.35 -7 5.7 -7 4 C-6.34 4 -5.68 4 -5 4 C-4.67 4.66 -4.34 5.32 -4 6 C-3.34 6 -2.68 6 -2 6 C-1.855625 5.38125 -1.71125 4.7625 -1.5625 4.125 C-1 2 -1 2 0 0 Z " fill="#CEB663" transform="translate(136,122)"/>
<path d="M0 0 C0.99 0 1.98 0 3 0 C3 1.98 3 3.96 3 6 C0.69 6.66 -1.62 7.32 -4 8 C-3.33290534 4.77570912 -2.40758428 2.40758428 0 0 Z " fill="#D1B44E" transform="translate(428,94)"/>
<path d="M0 0 C1.65 0 3.3 0 5 0 C5 2.97 5 5.94 5 9 C4.34 8.67 3.68 8.34 3 8 C3.33 5.69 3.66 3.38 4 1 C0.78796065 3.49825283 -2.17493137 6.0702992 -5 9 C-5 8.01 -5 7.02 -5 6 C-4.34 6 -3.68 6 -3 6 C-2.67 4.68 -2.34 3.36 -2 2 C-1.34 2 -0.68 2 0 2 C0 1.34 0 0.68 0 0 Z " fill="#CCB66B" transform="translate(201,50)"/>
<path d="M0 0 C-0.1875 1.875 -0.1875 1.875 -1 4 C-3.3125 5.0625 -3.3125 5.0625 -6 6 C-6.680625 6.53625 -7.36125 7.0725 -8.0625 7.625 C-10 9 -10 9 -14 9 C-13.67 7.68 -13.34 6.36 -13 5 C-13 5.66 -13 6.32 -13 7 C-9.72474189 5.94035767 -7.38618531 4.60721355 -4.8125 2.375 C-2 0 -2 0 0 0 Z " fill="#D3BF7C" transform="translate(262,49)"/>
<path d="M0 0 C4.62 2.31 9.24 4.62 14 7 C14 7.33 14 7.66 14 8 C12.02 8 10.04 8 8 8 C7.814375 7.38125 7.62875 6.7625 7.4375 6.125 C5.28562767 2.94397134 2.62466237 2.80548053 -1 2 C-0.67 1.34 -0.34 0.68 0 0 Z " fill="#CBB96A" transform="translate(337,200)"/>
<path d="M0 0 C4.55384615 -0.36923077 4.55384615 -0.36923077 6.8125 1.5 C7.204375 1.995 7.59625 2.49 8 3 C7.01 3 6.02 3 5 3 C4.67 3.99 4.34 4.98 4 6 C2.68 5.67 1.36 5.34 0 5 C0 3.35 0 1.7 0 0 Z " fill="#EDE4B9" transform="translate(319,88)"/>
<path d="M0 0 C3.63 0.33 7.26 0.66 11 1 C11 1.66 11 2.32 11 3 C13.64 3.66 16.28 4.32 19 5 C14.30227464 6.17443134 11.61845553 5.14389742 7.25 3.5625 C6.20392578 3.19801758 6.20392578 3.19801758 5.13671875 2.82617188 C3.42114902 2.22689752 1.71010285 1.61470115 0 1 C0 0.67 0 0.34 0 0 Z " fill="#E9DEAE" transform="translate(371,82)"/>
<path d="M0 0 C0.66 0 1.32 0 2 0 C2 0.66 2 1.32 2 2 C1.505 2.474375 1.01 2.94875 0.5 3.4375 C-1.34626591 4.99969942 -1.34626591 4.99969942 -1 8 C-2.60875 7.7215625 -2.60875 7.7215625 -4.25 7.4375 C-7.40391546 7.0695432 -9.09818492 6.95534657 -12 8 C-9.44514517 4.87739966 -6.74891123 4.24963708 -3 3 C-1.29078411 1.4587688 -1.29078411 1.4587688 0 0 Z " fill="#C7AC55" transform="translate(340,47)"/>
<path d="M0 0 C0.66 1.32 1.32 2.64 2 4 C1.01 4.33 0.02 4.66 -1 5 C-0.67 3.35 -0.34 1.7 0 0 Z M-5 5 C-3.68 5 -2.36 5 -1 5 C-1 5.66 -1 6.32 -1 7 C-1.66 7 -2.32 7 -3 7 C-3.33 8.65 -3.66 10.3 -4 12 C-4.66 12 -5.32 12 -6 12 C-6.625 10.1875 -6.625 10.1875 -7 8 C-6.34 7.01 -5.68 6.02 -5 5 Z " fill="#CDB240" transform="translate(257,260)"/>
<path d="M0 0 C5.01656959 1.4333056 7.01452882 3.90563952 10 8 C10 8.66 10 9.32 10 10 C9.01 10 8.02 10 7 10 C7 9.01 7 8.02 7 7 C6.34 7 5.68 7 5 7 C4.67 5.68 4.34 4.36 4 3 C2.68 2.67 1.36 2.34 0 2 C0 1.34 0 0.68 0 0 Z " fill="#C8AF58" transform="translate(263,258)"/>
<path d="M0 0 C0.33 0.99 0.66 1.98 1 3 C-1.97 5.475 -1.97 5.475 -5 8 C-5.99 7.34 -6.98 6.68 -8 6 C-2.25 1.125 -2.25 1.125 0 0 Z " fill="#CCAF56" transform="translate(204,254)"/>
<path d="M0 0 C0 0.33 0 0.66 0 1 C-0.92232422 1.07347656 -0.92232422 1.07347656 -1.86328125 1.1484375 C-2.67152344 1.22320312 -3.47976562 1.29796875 -4.3125 1.375 C-5.51326172 1.47941406 -5.51326172 1.47941406 -6.73828125 1.5859375 C-9.27224441 1.89564426 -9.27224441 1.89564426 -12 4 C-12 4.99 -12 5.98 -12 7 C-13.32 7 -14.64 7 -16 7 C-15.8125 4.625 -15.8125 4.625 -15 2 C-10.62426555 -0.96420721 -5.07382262 -0.17733749 0 0 Z " fill="#C3B062" transform="translate(241,210)"/>
<path d="M0 0 C0.66 0.33 1.32 0.66 2 1 C2 1.66 2 2.32 2 3 C1.01 3 0.02 3 -1 3 C-1 3.99 -1 4.98 -1 6 C-1.639375 6.28875 -2.27875 6.5775 -2.9375 6.875 C-5.15206079 7.82823451 -5.15206079 7.82823451 -6 10 C-6.99 9.67 -7.98 9.34 -9 9 C-7.6581656 4.97449681 -5.5772427 4.11714364 -2 2 C-1.34 2 -0.68 2 0 2 C0 1.34 0 0.68 0 0 Z " fill="#CEB359" transform="translate(118,143)"/>
<path d="M0 0 C0.33 0 0.66 0 1 0 C1.26666667 8 1.26666667 8 -1 12 C-1.38290462 13.99110401 -1.72604615 15.99100513 -2 18 C-1.34 18.33 -0.68 18.66 0 19 C-0.99 19.33 -1.98 19.66 -3 20 C-3.35482211 12.78528371 -2.1591338 6.87581298 0 0 Z " fill="#EDE2B4" transform="translate(134,109)"/>
<path d="M0 0 C1.32 0 2.64 0 4 0 C4.36923077 4.55384615 4.36923077 4.55384615 2.5 6.8125 C2.005 7.204375 1.51 7.59625 1 8 C0.67 7.34 0.34 6.68 0 6 C-0.66 6 -1.32 6 -2 6 C-2 5.01 -2 4.02 -2 3 C-1.34 3 -0.68 3 0 3 C0 2.01 0 1.02 0 0 Z " fill="#F7F5E6" transform="translate(195,62)"/>
<path d="M0 0 C2.475 0.99 2.475 0.99 5 2 C5 2.66 5 3.32 5 4 C3.35 4 1.7 4 0 4 C-0.99 5.98 -1.98 7.96 -3 10 C-3.66 10 -4.32 10 -5 10 C-3.84414715 6.08788267 -2.64465038 3.1254959 0 0 Z " fill="#C5AD5B" transform="translate(297,52)"/>
<path d="M0 0 C1.32 0.33 2.64 0.66 4 1 C-6.37357631 7.51936219 -6.37357631 7.51936219 -12 9 C-12 8.34 -12 7.68 -12 7 C-11.01 7 -10.02 7 -9 7 C-9 6.34 -9 5.68 -9 5 C-8.43410156 4.89042969 -7.86820312 4.78085937 -7.28515625 4.66796875 C-6.18494141 4.43013672 -6.18494141 4.43013672 -5.0625 4.1875 C-4.33160156 4.03667969 -3.60070312 3.88585937 -2.84765625 3.73046875 C-2.23792969 3.48941406 -1.62820313 3.24835938 -1 3 C-0.67 2.01 -0.34 1.02 0 0 Z " fill="#CAB872" transform="translate(381,396)"/>
<path d="M0 0 C0.33 0 0.66 0 1 0 C1 2.31 1 4.62 1 7 C-7.03571429 9.27678571 -7.03571429 9.27678571 -11 8 C-8 6 -8 6 -4 6 C-3.67 5.34 -3.34 4.68 -3 4 C-2.01 4.33 -1.02 4.66 0 5 C0 3.35 0 1.7 0 0 Z " fill="#C3B165" transform="translate(259,128)"/>
<path d="M0 0 C2.31 0.33 4.62 0.66 7 1 C6.01 1.33 5.02 1.66 4 2 C4 3.65 4 5.3 4 7 C4.66 7.33 5.32 7.66 6 8 C5.01 8 4.02 8 3 8 C0.19744677 5.0936485 0 4.21174952 0 0 Z " fill="#D5BD70" transform="translate(315,86)"/>
<path d="M0 0 C1.64666203 0.1135629 3.29236082 0.24117381 4.9375 0.375 C5.85402344 0.44460937 6.77054688 0.51421875 7.71484375 0.5859375 C8.84599609 0.79089844 8.84599609 0.79089844 10 1 C10.33 1.66 10.66 2.32 11 3 C11.99 3.33 12.98 3.66 14 4 C14 4.66 14 5.32 14 6 C8.8896856 4.8545847 4.62765919 3.54521255 0 1 C0 0.67 0 0.34 0 0 Z " fill="#CDB855" transform="translate(186,129)"/>
<path d="M0 0 C2.375 0.6875 2.375 0.6875 5 2 C6.3125 4.625 6.3125 4.625 7 7 C3.17902761 6.46930939 0.93828597 5.50298434 -2 3 C-1.01 3 -0.02 3 1 3 C0.67 2.01 0.34 1.02 0 0 Z " fill="#D1BC70" transform="translate(338,98)"/>
<path d="M0 0 C2 1.375 2 1.375 4 3 C4 3.66 4 4.32 4 5 C-0.55737263 4.56179109 -3.57653445 4.14958831 -7 1 C-4.69 1.33 -2.38 1.66 0 2 C0 1.34 0 0.68 0 0 Z " fill="#F3E5C0" transform="translate(335,96)"/>
<path d="M0 0 C0.103125 0.639375 0.20625 1.27875 0.3125 1.9375 C0.539375 2.618125 0.76625 3.29875 1 4 C1.99 4.33 2.98 4.66 4 5 C2.3545622 6.68762851 0.68711423 8.3540349 -1 10 C-1.33 10 -1.66 10 -2 10 C-1.125 2.25 -1.125 2.25 0 0 Z " fill="#D3BA6C" transform="translate(188,73)"/>
<path d="M0 0 C-7.25472547 3.70837084 -7.25472547 3.70837084 -10.875 5.125 C-13.1650641 5.90865385 -13.1650641 5.90865385 -15 8 C-15 7.01 -15 6.02 -15 5 C-13.56429734 4.18432826 -12.12636566 3.37257907 -10.6875 2.5625 C-9.88699219 2.11003906 -9.08648437 1.65757813 -8.26171875 1.19140625 C-4.93222391 -0.56247272 -3.66341712 -1.22113904 0 0 Z " fill="#CDB770" transform="translate(223,30)"/>
<path d="M0 0 C-13.36893204 6 -13.36893204 6 -16 6 C-16 5.34 -16 4.68 -16 4 C-13.71144298 3.13656269 -11.4198072 2.2840189 -9.125 1.4375 C-8.47402344 1.19064453 -7.82304687 0.94378906 -7.15234375 0.68945312 C-2.2265625 -1.11328125 -2.2265625 -1.11328125 0 0 Z " fill="#C7AF60" transform="translate(147,190)"/>
<path d="M0 0 C2.97 0 5.94 0 9 0 C8 2 8 2 5.1875 3.125 C2 4 2 4 -2 4 C-1.34 2.68 -0.68 1.36 0 0 Z " fill="#F9F2E6" transform="translate(318,50)"/>
<path d="M0 0 C-0.54226981 3.79588866 -2.20127563 5.47211993 -5 8 C-5 6.68 -5 5.36 -5 4 C-5.66 3.67 -6.32 3.34 -7 3 C-3.375 0 -3.375 0 0 0 Z " fill="#F4E7C0" transform="translate(273,33)"/>
<path d="M0 0 C3.26008643 3.16952847 6.22237877 6.39937989 9 10 C8.67 10.66 8.34 11.32 8 12 C7.01 11.67 6.02 11.34 5 11 C4.31867549 9.33927151 3.65257873 7.672233 3 6 C2.01 5.34 1.02 4.68 0 4 C0 2.68 0 1.36 0 0 Z " fill="#CDB55F" transform="translate(381,232)"/>
<path d="M0 0 C2.97722547 0.70333538 5.85256543 1.58248537 8.75 2.5625 C9.94882812 2.96662109 9.94882812 2.96662109 11.171875 3.37890625 C11.77515625 3.58386719 12.3784375 3.78882812 13 4 C13 4.66 13 5.32 13 6 C8.15340923 5.40895235 4.39251833 4.02055843 0 2 C0 1.34 0 0.68 0 0 Z " fill="#CEB663" transform="translate(249,109)"/>
<path d="M0 0 C2 3 2 3 2 5 C3.65 5.33 5.3 5.66 7 6 C7 6.66 7 7.32 7 8 C2.48521602 7.46884894 -0.34666857 5.63379708 -4 3 C-2.68 2.67 -1.36 2.34 0 2 C0 1.34 0 0.68 0 0 Z " fill="#CBB669" transform="translate(324,107)"/>
<path d="M0 0 C5.5 -0.36666667 5.5 -0.36666667 7.875 1.375 C9 3 9 3 9 5 C8.01 5.33 7.02 5.66 6 6 C5.34 5.01 4.68 4.02 4 3 C1.94074861 2.27617533 1.94074861 2.27617533 0 2 C0 1.34 0 0.68 0 0 Z " fill="#D2B56B" transform="translate(253,255)"/>
<path d="M0 0 C3.8063457 0.67170806 7.35206816 1.72746564 11 3 C11 3.99 11 4.98 11 6 C9.3509698 5.38348417 7.70584159 4.75652258 6.0625 4.125 C5.14597656 3.77695313 4.22945313 3.42890625 3.28515625 3.0703125 C1 2 1 2 0 0 Z " fill="#DBB35F" transform="translate(363,93)"/>
<path d="M0 0 C0.66 0.33 1.32 0.66 2 1 C1.67 1.66 1.34 2.32 1 3 C0.7525 3.804375 0.505 4.60875 0.25 5.4375 C-1.2873039 8.588973 -2.9144483 9.45722415 -6 11 C-4.74194623 6.49197399 -3.09592835 3.5087188 0 0 Z " fill="#CCB163" transform="translate(185,56)"/>
<path d="M0 0 C0 3 0 3 -1 4.625 C-4.13796443 6.78235055 -7.23442808 6.69134656 -11 7 C-7.54319097 4.23455278 -3.85658398 2.15078722 0 0 Z " fill="#BAA95F" transform="translate(369,381)"/>
<path d="M0 0 C0.33 0.99 0.66 1.98 1 3 C-1.31 4.98 -3.62 6.96 -6 9 C-6 5 -6 5 -4.6875 3.515625 C-3.125 2.34375 -1.5625 1.171875 0 0 Z " fill="#CCAF58" transform="translate(378,374)"/>
<path d="M0 0 C0.66 0.33 1.32 0.66 2 1 C1.67 3.64 1.34 6.28 1 9 C0.01 9 -0.98 9 -2 9 C-2.6875 6.75 -2.6875 6.75 -3 4 C-1.5625 1.6875 -1.5625 1.6875 0 0 Z " fill="#C3AA3C" transform="translate(313,245)"/>
<path d="M0 0 C0.66 0.66 1.32 1.32 2 2 C-1.63 4.31 -5.26 6.62 -9 9 C-8.34 7.68 -7.68 6.36 -7 5 C-5.67405895 4.63837971 -4.34061543 4.30271961 -3 4 C-2.67 3.01 -2.34 2.02 -2 1 C-1.34 0.67 -0.68 0.34 0 0 Z " fill="#C9AD60" transform="translate(101,229)"/>
<path d="M0 0 C0.66 0.66 1.32 1.32 2 2 C-0.31 4.97 -2.62 7.94 -5 11 C-5.33 10.34 -5.66 9.68 -6 9 C-5.22265625 7.2734375 -5.22265625 7.2734375 -4.0625 5.375 C-3.381875 4.26125 -2.70125 3.1475 -2 2 C-1.34 2 -0.68 2 0 2 C0 1.34 0 0.68 0 0 Z " fill="#CAAD5C" transform="translate(75,203)"/>
<path d="M0 0 C-5.07006276 2.53503138 -7.21472229 2.96421295 -13 2 C-8.24378872 -1.17080752 -5.58805025 -1.14301028 0 0 Z " fill="#CDAD55" transform="translate(165,186)"/>
<path d="M0 0 C3.45382768 2.66886684 3.97301528 5.89206112 5 10 C5.33 10.99 5.66 11.98 6 13 C5.01 12.67 4.02 12.34 3 12 C3 11.34 3 10.68 3 10 C2.34 10 1.68 10 1 10 C1.33 8.02 1.66 6.04 2 4 C1.34 4 0.68 4 0 4 C0 2.68 0 1.36 0 0 Z " fill="#CCB065" transform="translate(307,108)"/>
<path d="M0 0 C4.31392226 0.4793247 6.16569547 1.7457985 9 5 C4.545 4.01 4.545 4.01 0 3 C0 2.01 0 1.02 0 0 Z " fill="#F9F2D7" transform="translate(273,102)"/>
<path d="M0 0 C3.63 0 7.26 0 11 0 C8 3 8 3 5.73828125 3.07421875 C4.93777344 2.94660156 4.13726562 2.81898437 3.3125 2.6875 C2.10013672 2.50767578 2.10013672 2.50767578 0.86328125 2.32421875 C0.24839844 2.21722656 -0.36648438 2.11023437 -1 2 C-0.67 1.34 -0.34 0.68 0 0 Z " fill="#E9DFAB" transform="translate(338,42)"/>
<path d="M0 0 C2.475 0.495 2.475 0.495 5 1 C3.515 4.96 3.515 4.96 2 9 C1.34 8.67 0.68 8.34 0 8 C0 5.36 0 2.72 0 0 Z " fill="#B99F47" transform="translate(26,275)"/>
<path d="M0 0 C3.96 1.98 3.96 1.98 8 4 C8 4.66 8 5.32 8 6 C5.69 5.67 3.38 5.34 1 5 C0.67 3.35 0.34 1.7 0 0 Z " fill="#C4AA5A" transform="translate(193,272)"/>
<path d="M0 0 C0.66 0.99 1.32 1.98 2 3 C1.3125 4.9375 1.3125 4.9375 0 7 C-2.625 7.75 -2.625 7.75 -5 8 C-3.62845496 5.04590299 -2.01136276 2.55991624 0 0 Z " fill="#C7AD56" transform="translate(78,181)"/>
<path d="M0 0 C6.52307692 1.47692308 6.52307692 1.47692308 8.9375 4.125 C9.288125 4.74375 9.63875 5.3625 10 6 C8.5164999 5.57742724 7.03823576 5.13643678 5.5625 4.6875 C4.73878906 4.44386719 3.91507812 4.20023437 3.06640625 3.94921875 C2.04353516 3.47935547 2.04353516 3.47935547 1 3 C0.67 2.01 0.34 1.02 0 0 Z " fill="#C9AE57" transform="translate(263,115)"/>
<path d="M0 0 C4.85963179 0.60745397 8.7405518 2.72758967 13 5 C9.5945335 6.1351555 8.68276913 5.84899821 5.375 4.75 C4.57835937 4.49734375 3.78171875 4.2446875 2.9609375 3.984375 C1 3 1 3 0 0 Z " fill="#C7AE5C" transform="translate(319,94)"/>
<path d="M0 0 C1.4370809 -0.05422947 2.87475462 -0.09289723 4.3125 -0.125 C5.11300781 -0.14820312 5.91351563 -0.17140625 6.73828125 -0.1953125 C9 0 9 0 12 2 C9.03 1.67 6.06 1.34 3 1 C3 1.99 3 2.98 3 4 C1.68 3.67 0.36 3.34 -1 3 C-0.67 2.01 -0.34 1.02 0 0 Z " fill="#CCB356" transform="translate(334,76)"/>
<path d="M0 0 C1.07349791 4.29399165 0.79682816 5.19495213 -1 9 C-2.32 8.67 -3.64 8.34 -5 8 C-3.35 5.36 -1.7 2.72 0 0 Z " fill="#CAAC59" transform="translate(384,365)"/>
<path d="M0 0 C2.45234885 0.98093954 3.7809268 1.68703828 5.3125 3.875 C6.1132654 6.35009306 5.86325845 7.58287634 5 10 C4.01 8.02 3.02 6.04 2 4 C1.34 4 0.68 4 0 4 C0 2.68 0 1.36 0 0 Z " fill="#C0A75F" transform="translate(208,255)"/>
<path d="M0 0 C5.75 3.625 5.75 3.625 8 7 C7.01 7.33 6.02 7.66 5 8 C5 7.01 5 6.02 5 5 C3.35 4.67 1.7 4.34 0 4 C0 2.68 0 1.36 0 0 Z " fill="#CBB65C" transform="translate(360,214)"/>
<path d="M0 0 C0.33 0.66 0.66 1.32 1 2 C-3.95 1.67 -8.9 1.34 -14 1 C-14 0.67 -14 0.34 -14 0 C-4.08472437 -1.404124 -4.08472437 -1.404124 0 0 Z " fill="#D2B446" transform="translate(235,137)"/>
<path d="M0 0 C3.71888239 0.50712033 6.73454239 1.11608215 10 3 C10 3.66 10 4.32 10 5 C6.58978257 4.21302675 3.31114834 3.12880057 0 2 C0 1.34 0 0.68 0 0 Z " fill="#CBAF5B" transform="translate(390,67)"/>
<path d="M0 0 C-0.33 2.31 -0.66 4.62 -1 7 C-1.33 6.34 -1.66 5.68 -2 5 C-4.02463255 4.34786708 -4.02463255 4.34786708 -6 4 C-2.25 0 -2.25 0 0 0 Z " fill="#F5E9C0" transform="translate(205,51)"/>
<path d="M0 0 C0.66 0 1.32 0 2 0 C1.65120368 3.25543229 0.97866739 4.01873107 -1.5625 6.25 C-2.366875 6.8275 -3.17125 7.405 -4 8 C-4.66 7.67 -5.32 7.34 -6 7 C-5.04882866 5.8274869 -4.08882991 4.66212985 -3.125 3.5 C-2.59132813 2.8503125 -2.05765625 2.200625 -1.5078125 1.53125 C-0.76144531 0.77328125 -0.76144531 0.77328125 0 0 Z " fill="#CAB366" transform="translate(269,40)"/>
<path d="M0 0 C3.3 0.33 6.6 0.66 10 1 C10 1.99 10 2.98 10 4 C6.28111761 3.49287967 3.26545761 2.88391785 0 1 C0 0.67 0 0.34 0 0 Z " fill="#EEE0B9" transform="translate(204,120)"/>
<path d="M0 0 C2.475 0.495 2.475 0.495 5 1 C5 1.66 5 2.32 5 3 C5.99 3 6.98 3 8 3 C8 3.66 8 4.32 8 5 C5.03 4.505 5.03 4.505 2 4 C2 3.34 2 2.68 2 2 C1.34 2 0.68 2 0 2 C0 1.34 0 0.68 0 0 Z " fill="#F5F5EF" transform="translate(261,97)"/>
<path d="M0 0 C2.475 0.99 2.475 0.99 5 2 C5 2.99 5 3.98 5 5 C2.69 5 0.38 5 -2 5 C-0.68 4.67 0.64 4.34 2 4 C2 3.34 2 2.68 2 2 C1.01 1.67 0.02 1.34 -1 1 C-0.67 0.67 -0.34 0.34 0 0 Z " fill="#F3EAC2" transform="translate(392,83)"/>
<path d="M0 0 C0.33 0.66 0.66 1.32 1 2 C0.22265625 3.7265625 0.22265625 3.7265625 -0.9375 5.625 C-1.618125 6.73875 -2.29875 7.8525 -3 9 C-3.89674777 6.48910624 -4.13172674 5.35464891 -3.1875 2.8125 C-2 1 -2 1 0 0 Z " fill="#C8AF64" transform="translate(399,376)"/>
<path d="M0 0 C1.50539661 0.94983358 3.00420347 1.91011891 4.5 2.875 C5.75296875 3.67550781 5.75296875 3.67550781 7.03125 4.4921875 C7.6809375 4.98976563 8.330625 5.48734375 9 6 C9 6.66 9 7.32 9 8 C5.08158173 6.69386058 2.67359191 5.16870152 0 2 C0 1.34 0 0.68 0 0 Z " fill="#BCAA60" transform="translate(60,376)"/>
<path d="M0 0 C0.33 0.99 0.66 1.98 1 3 C-2.3 3.33 -5.6 3.66 -9 4 C-9.33 3.34 -9.66 2.68 -10 2 C-6.38026598 0.68373308 -3.90432869 0 0 0 Z " fill="#C6AE56" transform="translate(381,341)"/>
<path d="M0 0 C3.36720387 1.39332574 4.9859524 2.9789286 7 6 C6.34 6 5.68 6 5 6 C4.67 6.66 4.34 7.32 4 8 C3.34 7.34 2.68 6.68 2 6 C2.33 5.34 2.66 4.68 3 4 C2.01 3.34 1.02 2.68 0 2 C0 1.34 0 0.68 0 0 Z " fill="#C7AE5C" transform="translate(368,221)"/>
<path d="M0 0 C0.66 0.33 1.32 0.66 2 1 C0.38405168 3.04119788 -1.2856382 5.04072937 -3 7 C-3.66 7 -4.32 7 -5 7 C-3.75023244 3.34683329 -3.32901247 2.21934164 0 0 Z " fill="#CCB060" transform="translate(82,196)"/>
<path d="M0 0 C0.8353125 0.2475 0.8353125 0.2475 1.6875 0.5 C4.18691249 1.04041351 6.45045662 1.07082065 9 1 C9.33 1.66 9.66 2.32 10 3 C6.37 3 2.74 3 -1 3 C-0.67 2.01 -0.34 1.02 0 0 Z " fill="#C7AC58" transform="translate(200,194)"/>
<path d="M0 0 C2.64 0 5.28 0 8 0 C8 0.99 8 1.98 8 3 C5.6568787 2.74438677 3.32156597 2.40729228 1 2 C0.67 1.34 0.34 0.68 0 0 Z " fill="#F8F3E6" transform="translate(200,116)"/>
<path d="M0 0 C0 0.99 0 1.98 0 3 C0.66 3.66 1.32 4.32 2 5 C-3.53846154 4.38461538 -3.53846154 4.38461538 -5.875 2.4375 C-6.24625 1.963125 -6.6175 1.48875 -7 1 C-2.25 0 -2.25 0 0 0 Z " fill="#CDB554" transform="translate(340,114)"/>
<path d="M0 0 C0.66 0.66 1.32 1.32 2 2 C4.06874034 2.6425235 4.06874034 2.6425235 6 3 C6 4.65 6 6.3 6 8 C3 6.25 3 6.25 0 4 C0 2.68 0 1.36 0 0 Z " fill="#D7BD6B" transform="translate(235,97)"/>
<path d="M0 0 C2.35171131 0.59861742 4.6859378 1.26924352 7 2 C7.33 2.66 7.66 3.32 8 4 C6.02 4 4.04 4 2 4 C2 4.66 2 5.32 2 6 C1.01 5.67 0.02 5.34 -1 5 C-0.67 3.35 -0.34 1.7 0 0 Z " fill="#CBB161" transform="translate(254,98)"/>
<path d="M0 0 C1.65 0.33 3.3 0.66 5 1 C4.01 1.33 3.02 1.66 2 2 C2 2.66 2 3.32 2 4 C2.66 4 3.32 4 4 4 C4 4.66 4 5.32 4 6 C1.525 5.01 1.525 5.01 -1 4 C-0.67 2.68 -0.34 1.36 0 0 Z " fill="#F4EDCE" transform="translate(324,91)"/>
<path d="M0 0 C0.66 0 1.32 0 2 0 C3 3 3 3 2 6 C-0.0625 6.6875 -0.0625 6.6875 -2 7 C-1.34 4.69 -0.68 2.38 0 0 Z " fill="#CFA754" transform="translate(177,69)"/>
<path d="M0 0 C0 3.62453269 -0.92469613 5.07920195 -3 8 C-3.99 8.33 -4.98 8.66 -6 9 C-4.83857315 4.64464931 -3.92300495 2.35380297 0 0 Z " fill="#CEB767" transform="translate(244,39)"/>
<path d="M0 0 C0.66 0.33 1.32 0.66 2 1 C2 1.66 2 2.32 2 3 C1.01 3.495 1.01 3.495 0 4 C-0.65772428 7.02934491 -0.65772428 7.02934491 -1 10 C-1.33 10 -1.66 10 -2 10 C-2 8.35 -2 6.7 -2 5 C-2.66 5 -3.32 5 -4 5 C-4 4.34 -4 3.68 -4 3 C-2 1.375 -2 1.375 0 0 Z " fill="#CAB055" transform="translate(208,45)"/>
<path d="M0 0 C2.31 0 4.62 0 7 0 C7 0.66 7 1.32 7 2 C3.7 2.33 0.4 2.66 -3 3 C-2.01 2.67 -1.02 2.34 0 2 C0 1.34 0 0.68 0 0 Z " fill="#C8AC64" transform="translate(342,409)"/>
<path d="M0 0 C3.40312738 1.05875074 6.01353231 2.00902154 9 4 C9 4.66 9 5.32 9 6 C6.5625 5.625 6.5625 5.625 4 5 C3.67 4.34 3.34 3.68 3 3 C2.01 2.67 1.02 2.34 0 2 C0 1.34 0 0.68 0 0 Z " fill="#CFAC60" transform="translate(236,109)"/>
<path d="M0 0 C0.66 0.33 1.32 0.66 2 1 C2 2.66666667 2 4.33333333 2 6 C0.68 6.33 -0.64 6.66 -2 7 C-2.33 5.35 -2.66 3.7 -3 2 C-2.01 1.34 -1.02 0.68 0 0 Z " fill="#DDBB41" transform="translate(212,97)"/>
<path d="M0 0 C0.33 0.66 0.66 1.32 1 2 C0.22265625 3.9453125 0.22265625 3.9453125 -0.9375 6.125 C-1.31777344 6.84945312 -1.69804687 7.57390625 -2.08984375 8.3203125 C-2.39019531 8.87460938 -2.69054687 9.42890625 -3 10 C-3.66 8.68 -4.32 7.36 -5 6 C-3.35 4.02 -1.7 2.04 0 0 Z " fill="#C7B064" transform="translate(215,67)"/>
<path d="M0 0 C0.66 0.33 1.32 0.66 2 1 C-0.31 3.31 -2.62 5.62 -5 8 C-5.66 7.34 -6.32 6.68 -7 6 C-6.01 5.67 -5.02 5.34 -4 5 C-4 4.34 -4 3.68 -4 3 C-3.34 3 -2.68 3 -2 3 C-2 2.34 -2 1.68 -2 1 C-1.34 0.67 -0.68 0.34 0 0 Z " fill="#CCB765" transform="translate(275,54)"/>
<path d="M0 0 C0 0.99 0 1.98 0 3 C-1.65 3.33 -3.3 3.66 -5 4 C-5.33 3.01 -5.66 2.02 -6 1 C-4 0 -4 0 0 0 Z " fill="#D3B243" transform="translate(91,346)"/>
<path d="M0 0 C0.33 0.66 0.66 1.32 1 2 C0.06421005 4.35981813 -0.93347808 6.69631264 -2 9 C-2.33 9 -2.66 9 -3 9 C-3.36923077 3.46153846 -3.36923077 3.46153846 -1.5 1.125 C-1.005 0.75375 -0.51 0.3825 0 0 Z " fill="#CCB064" transform="translate(406,311)"/>
<path d="M0 0 C1.485 0.99 1.485 0.99 3 2 C3 2.66 3 3.32 3 4 C3.66 4.33 4.32 4.66 5 5 C4.67 5.99 4.34 6.98 4 8 C2 6.25 2 6.25 0 4 C0 2.68 0 1.36 0 0 Z " fill="#CFAE58" transform="translate(375,255)"/>
<path d="M0 0 C0.33 0.99 0.66 1.98 1 3 C-2.80504787 4.79682816 -3.70600835 5.07349791 -8 4 C-5.36 2.68 -2.72 1.36 0 0 Z " fill="#C7B45C" transform="translate(126,196)"/>
<path d="M0 0 C-4.43956276 2.29632557 -7.05687635 3.20238143 -12 2 C-8.09971775 -0.60018816 -4.52565431 -0.15085514 0 0 Z " fill="#C9AA56" transform="translate(176,183)"/>
<path d="M0 0 C1.7074998 1.28062485 3.37373596 2.61767557 5 4 C5 4.66 5 5.32 5 6 C5.66 6 6.32 6 7 6 C6.67 6.99 6.34 7.98 6 9 C3.72494996 6.83328568 1.76424908 4.60436769 0 2 C0 1.34 0 0.68 0 0 Z " fill="#CCB051" transform="translate(360,103)"/>
<path d="M0 0 C0.66 0.33 1.32 0.66 2 1 C2 2.66666667 2 4.33333333 2 6 C0.68 5.67 -0.64 5.34 -2 5 C-1.125 1.125 -1.125 1.125 0 0 Z " fill="#CEAD57" transform="translate(208,80)"/>
<path d="M0 0 C-5.75 4 -5.75 4 -8 4 C-7.67 2.68 -7.34 1.36 -7 0 C-3.98968256 -0.93423645 -3.13349732 -1.04449911 0 0 Z " fill="#D3C072" transform="translate(376,45)"/>
<path d="M0 0 C2.97 0 5.94 0 9 0 C9 0.33 9 0.66 9 1 C5.01939223 2.17076699 1.08378283 3.25749403 -3 4 C-2.67 3.34 -2.34 2.68 -2 2 C-1.34 2 -0.68 2 0 2 C0 1.34 0 0.68 0 0 Z " fill="#D1BC75" transform="translate(328,43)"/>
<path d="M0 0 C1.32 0.99 2.64 1.98 4 3 C3.67 4.65 3.34 6.3 3 8 C2.67 7.01 2.34 6.02 2 5 C1.01 5 0.02 5 -1 5 C-0.67 3.35 -0.34 1.7 0 0 Z " fill="#CFAD39" transform="translate(26,283)"/>
<path d="M0 0 C0.66 0 1.32 0 2 0 C2 1.98 2 3.96 2 6 C0.02 6.99 0.02 6.99 -2 8 C-1.34 5.36 -0.68 2.72 0 0 Z " fill="#BE9E4B" transform="translate(30,260)"/>
<path d="M0 0 C0.66 0.66 1.32 1.32 2 2 C1.625 4.125 1.625 4.125 1 6 C-0.32 5.67 -1.64 5.34 -3 5 C-2.01 3.35 -1.02 1.7 0 0 Z " fill="#C1AB51" transform="translate(52,254)"/>
<path d="M0 0 C2.31 0.33 4.62 0.66 7 1 C6.67 2.65 6.34 4.3 6 6 C3.97945196 4.35830472 1.97956942 2.69088222 0 1 C0 0.67 0 0.34 0 0 Z " fill="#CBA756" transform="translate(296,248)"/>
<path d="M0 0 C0.66 0.66 1.32 1.32 2 2 C0.35 3.32 -1.3 4.64 -3 6 C-3.66 5.67 -4.32 5.34 -5 5 C-5 4.34 -5 3.68 -5 3 C-2.5 1.375 -2.5 1.375 0 0 Z " fill="#C8B363" transform="translate(172,238)"/>
<path d="M0 0 C0.99 0.33 1.98 0.66 3 1 C-1.75 5.875 -1.75 5.875 -4 7 C-3.67 5.68 -3.34 4.36 -3 3 C-2.01 3 -1.02 3 0 3 C0 2.01 0 1.02 0 0 Z " fill="#CEB061" transform="translate(108,168)"/>
<path d="M0 0 C2.31 0 4.62 0 7 0 C5.68 0.33 4.36 0.66 3 1 C3 2.32 3 3.64 3 5 C2.34 5 1.68 5 1 5 C0.67 3.35 0.34 1.7 0 0 Z " fill="#CFB766" transform="translate(248,91)"/>
<path d="M0 0 C1.32 0.66 2.64 1.32 4 2 C4 2.99 4 3.98 4 5 C1.36 5 -1.28 5 -4 5 C-4 4.67 -4 4.34 -4 4 C-2.35 3.67 -0.7 3.34 1 3 C0.67 2.01 0.34 1.02 0 0 Z " fill="#D7C685" transform="translate(396,84)"/>
<path d="M0 0 C0.66 0 1.32 0 2 0 C1.67 1.98 1.34 3.96 1 6 C1.66 6.33 2.32 6.66 3 7 C1.68 7.33 0.36 7.66 -1 8 C-0.67 5.36 -0.34 2.72 0 0 Z " fill="#C8AE5A" transform="translate(247,52)"/>
<path d="M0 0 C0 0.66 0 1.32 0 2 C-0.66 2 -1.32 2 -2 2 C-2.33 2.99 -2.66 3.98 -3 5 C-4.65 5.33 -6.3 5.66 -8 6 C-3.38461538 0 -3.38461538 0 0 0 Z " fill="#ECDEB3" transform="translate(266,37)"/>
<path d="" fill="#FFFF00" transform="translate(0,0)"/>
</svg>
